solid OpenSCAD_Model
  facet normal -1 0 0
    outer loop
      vertex -28.6276 0.7801 0
      vertex -28.6276 0.7801 1.99
      vertex -28.6276 38.0537 1.99
    endloop
  endfacet
  facet normal -1 0 0
    outer loop
      vertex -28.6276 0.7801 0
      vertex -28.6276 38.0537 1.99
      vertex -28.6276 38.0537 0
    endloop
  endfacet
  facet normal 0 1 0
    outer loop
      vertex 28.6276 38.0537 0
      vertex -28.6276 38.0537 0
      vertex -28.6276 38.0537 1.99
    endloop
  endfacet
  facet normal 0 1 -0
    outer loop
      vertex 28.6276 38.0537 0
      vertex -28.6276 38.0537 1.99
      vertex 28.6276 38.0537 1.99
    endloop
  endfacet
  facet normal 0 0 -1
    outer loop
      vertex -28.6276 38.0537 0
      vertex 28.6276 38.0537 0
      vertex 28.6276 0.7801 0
    endloop
  endfacet
  facet normal 0 0 -1
    outer loop
      vertex -28.6276 38.0537 0
      vertex 28.6276 0.7801 0
      vertex -28.6276 0.7801 0
    endloop
  endfacet
  facet normal 0 0 1
    outer loop
      vertex 28.6276 0.7801 1.99
      vertex -28.6276 0.7801 1.99
      vertex 28.5565 -1.54396 1.99
    endloop
  endfacet
  facet normal 0 0 1
    outer loop
      vertex -28.6276 38.0537 1.99
      vertex -28.6276 0.7801 1.99
      vertex 28.6276 0.7801 1.99
    endloop
  endfacet
  facet normal -0 0 1
    outer loop
      vertex -28.6276 38.0537 1.99
      vertex 28.6276 0.7801 1.99
      vertex 28.6276 38.0537 1.99
    endloop
  endfacet
  facet normal 0.8406 -0.541656 0
    outer loop
      vertex 23.0998 -17.7758 0
      vertex 24.0072 -16.3676 0
      vertex 23.0998 -17.7758 1.99
    endloop
  endfacet
  facet normal 0.8406 -0.541656 0
    outer loop
      vertex 24.0072 -16.3676 1.99
      vertex 23.0998 -17.7758 1.99
      vertex 24.0072 -16.3676 0
    endloop
  endfacet
  facet normal 0.868716 -0.495311 0
    outer loop
      vertex 24.0072 -16.3676 0
      vertex 24.8641 -14.8647 0
      vertex 24.8641 -14.8647 1.99
    endloop
  endfacet
  facet normal 0.868716 -0.495311 0
    outer loop
      vertex 24.0072 -16.3676 0
      vertex 24.8641 -14.8647 1.99
      vertex 24.0072 -16.3676 1.99
    endloop
  endfacet
  facet normal 0.278828 -0.960341 0
    outer loop
      vertex 5.66999 -30.906 0
      vertex 5.66999 -30.906 1.99
      vertex 3.57247 -31.515 1.99
    endloop
  endfacet
  facet normal 0.278828 -0.960341 0
    outer loop
      vertex 5.66999 -30.906 0
      vertex 3.57247 -31.515 1.99
      vertex 3.57247 -31.515 0
    endloop
  endfacet
  facet normal -0.999533 -0.0305704 0
    outer loop
      vertex -28.6276 0.7801 0
      vertex -28.5565 -1.54459 0
      vertex -28.5565 -1.54459 1.99
    endloop
  endfacet
  facet normal 0.895332 -0.445399 0
    outer loop
      vertex 24.8641 -14.8647 0
      vertex 25.6597 -13.2654 0
      vertex 25.6597 -13.2654 1.99
    endloop
  endfacet
  facet normal 0.895332 -0.445399 0
    outer loop
      vertex 24.8641 -14.8647 0
      vertex 25.6597 -13.2654 1.99
      vertex 24.8641 -14.8647 1.99
    endloop
  endfacet
  facet normal 0.354649 -0.934999 0
    outer loop
      vertex 7.9054 -30.0581 0
      vertex 7.9054 -30.0581 1.99
      vertex 5.66999 -30.906 1.99
    endloop
  endfacet
  facet normal 0.354649 -0.934999 0
    outer loop
      vertex 7.9054 -30.0581 0
      vertex 5.66999 -30.906 1.99
      vertex 5.66999 -30.906 0
    endloop
  endfacet
  facet normal -0.99569 -0.0927444 0
    outer loop
      vertex -28.5565 -1.54459 0
      vertex -28.3501 -3.76047 0
      vertex -28.3501 -3.76047 1.99
    endloop
  endfacet
  facet normal -0.99569 -0.0927444 0
    outer loop
      vertex -28.5565 -1.54459 0
      vertex -28.3501 -3.76047 1.99
      vertex -28.5565 -1.54459 1.99
    endloop
  endfacet
  facet normal 0.632798 -0.774317 0
    outer loop
      vertex 17.1849 -24.333 0
      vertex 17.1849 -24.333 1.99
      vertex 16.0638 -25.2492 0
    endloop
  endfacet
  facet normal 0.919875 -0.392212 0
    outer loop
      vertex 25.6597 -13.2654 0
      vertex 26.3836 -11.5676 0
      vertex 26.3836 -11.5676 1.99
    endloop
  endfacet
  facet normal 0.919875 -0.392212 0
    outer loop
      vertex 25.6597 -13.2654 0
      vertex 26.3836 -11.5676 1.99
      vertex 25.6597 -13.2654 1.99
    endloop
  endfacet
  facet normal 0.663297 -0.748356 0
    outer loop
      vertex 18.1738 -23.4565 0
      vertex 18.1738 -23.4565 1.99
      vertex 17.1849 -24.333 1.99
    endloop
  endfacet
  facet normal 0.663297 -0.748356 0
    outer loop
      vertex 18.1738 -23.4565 0
      vertex 17.1849 -24.333 1.99
      vertex 17.1849 -24.333 0
    endloop
  endfacet
  facet normal 0.423118 -0.906074 0
    outer loop
      vertex 10.2267 -28.9741 0
      vertex 10.2267 -28.9741 1.99
      vertex 7.9054 -30.0581 1.99
    endloop
  endfacet
  facet normal 0.423118 -0.906074 0
    outer loop
      vertex 10.2267 -28.9741 0
      vertex 7.9054 -30.0581 1.99
      vertex 7.9054 -30.0581 0
    endloop
  endfacet
  facet normal -0.987897 -0.155114 0
    outer loop
      vertex -28.3501 -3.76047 0
      vertex -28.019 -5.8692 0
      vertex -28.019 -5.8692 1.99
    endloop
  endfacet
  facet normal -0.987897 -0.155114 0
    outer loop
      vertex -28.3501 -3.76047 0
      vertex -28.019 -5.8692 1.99
      vertex -28.3501 -3.76047 1.99
    endloop
  endfacet
  facet normal 0 0 -1
    outer loop
      vertex 25.6597 -13.2654 0
      vertex 24.8641 -14.8647 0
      vertex -25.6597 -13.2684 0
    endloop
  endfacet
  facet normal 0 0 -1
    outer loop
      vertex -24.8641 -14.868 0
      vertex -25.6597 -13.2684 0
      vertex 24.8641 -14.8647 0
    endloop
  endfacet
  facet normal 0 0 -1
    outer loop
      vertex 24.8641 -14.8647 0
      vertex 24.0072 -16.3676 0
      vertex -24.8641 -14.868 0
    endloop
  endfacet
  facet normal 0 0 -1
    outer loop
      vertex -24.0072 -16.3712 0
      vertex -24.8641 -14.868 0
      vertex 24.0072 -16.3676 0
    endloop
  endfacet
  facet normal 0 0 -1
    outer loop
      vertex -25.6597 -13.2684 0
      vertex -26.3836 -11.5704 0
      vertex 25.6597 -13.2654 0
    endloop
  endfacet
  facet normal 0 0 -1
    outer loop
      vertex 26.3836 -11.5676 0
      vertex 25.6597 -13.2654 0
      vertex -26.3836 -11.5704 0
    endloop
  endfacet
  facet normal 0 0 -1
    outer loop
      vertex -20.1796 -21.4529 0
      vertex -21.1753 -20.3185 0
      vertex 20.1796 -21.4493 0
    endloop
  endfacet
  facet normal 0 0 -1
    outer loop
      vertex 19.1755 -22.4959 0
      vertex 18.1738 -23.4565 0
      vertex -19.1755 -22.4996 0
    endloop
  endfacet
  facet normal 0.692145 -0.721759 0
    outer loop
      vertex 19.1755 -22.4959 0
      vertex 19.1755 -22.4959 1.99
      vertex 18.1738 -23.4565 1.99
    endloop
  endfacet
  facet normal 0.692145 -0.721759 0
    outer loop
      vertex 19.1755 -22.4959 0
      vertex 18.1738 -23.4565 1.99
      vertex 18.1738 -23.4565 0
    endloop
  endfacet
  facet normal 0.941811 -0.336142 0
    outer loop
      vertex 26.3836 -11.5676 0
      vertex 27.0252 -9.76995 0
      vertex 27.0252 -9.76995 1.99
    endloop
  endfacet
  facet normal 0.941811 -0.336142 0
    outer loop
      vertex 26.3836 -11.5676 0
      vertex 27.0252 -9.76995 1.99
      vertex 26.3836 -11.5676 1.99
    endloop
  endfacet
  facet normal 0.960718 -0.277527 0
    outer loop
      vertex 27.0252 -9.76995 0
      vertex 27.5739 -7.87051 0
      vertex 27.5739 -7.87051 1.99
    endloop
  endfacet
  facet normal 0.960718 -0.277527 0
    outer loop
      vertex 27.0252 -9.76995 0
      vertex 27.5739 -7.87051 1.99
      vertex 27.0252 -9.76995 1.99
    endloop
  endfacet
  facet normal -0.976199 -0.216879 0
    outer loop
      vertex -28.019 -5.8692 0
      vertex -27.5739 -7.87265 0
      vertex -27.5739 -7.87265 1.99
    endloop
  endfacet
  facet normal -0.976199 -0.216879 0
    outer loop
      vertex -28.019 -5.8692 0
      vertex -27.5739 -7.87265 1.99
      vertex -28.019 -5.8692 1.99
    endloop
  endfacet
  facet normal 0.721606 -0.692304 0
    outer loop
      vertex 20.1796 -21.4493 0
      vertex 20.1796 -21.4493 1.99
      vertex 19.1755 -22.4959 1.99
    endloop
  endfacet
  facet normal 0.721606 -0.692304 0
    outer loop
      vertex 20.1796 -21.4493 0
      vertex 19.1755 -22.4959 1.99
      vertex 19.1755 -22.4959 0
    endloop
  endfacet
  facet normal 0.97619 -0.216918 0
    outer loop
      vertex 27.5739 -7.87051 0
      vertex 28.019 -5.86744 0
      vertex 28.019 -5.86744 1.99
    endloop
  endfacet
  facet normal 0.97619 -0.216918 0
    outer loop
      vertex 27.5739 -7.87051 0
      vertex 28.019 -5.86744 1.99
      vertex 27.5739 -7.87051 1.99
    endloop
  endfacet
  facet normal 0.488208 -0.872727 0
    outer loop
      vertex 12.5817 -27.6567 0
      vertex 12.5817 -27.6567 1.99
      vertex 10.2267 -28.9741 1.99
    endloop
  endfacet
  facet normal 0.488208 -0.872727 0
    outer loop
      vertex 12.5817 -27.6567 0
      vertex 10.2267 -28.9741 1.99
      vertex 10.2267 -28.9741 0
    endloop
  endfacet
  facet normal -0.038645 -0.999253 0
    outer loop
      vertex 0 -32.0093 0
      vertex 0 -32.0093 1.99
      vertex -0.798989 -31.9784 1.99
    endloop
  endfacet
  facet normal -0.038645 -0.999253 0
    outer loop
      vertex 0 -32.0093 0
      vertex -0.798989 -31.9784 1.99
      vertex -0.798989 -31.9784 0
    endloop
  endfacet
  facet normal -0.960733 -0.277476 0
    outer loop
      vertex -27.5739 -7.87265 0
      vertex -27.0252 -9.77247 0
      vertex -27.0252 -9.77247 1.99
    endloop
  endfacet
  facet normal -0.960733 -0.277476 0
    outer loop
      vertex -27.5739 -7.87265 0
      vertex -27.0252 -9.77247 1.99
      vertex -27.5739 -7.87265 1.99
    endloop
  endfacet
  facet normal 0.751587 -0.659634 0
    outer loop
      vertex 21.1753 -20.3148 0
      vertex 21.1753 -20.3148 1.99
      vertex 20.1796 -21.4493 1.99
    endloop
  endfacet
  facet normal 0.751587 -0.659634 0
    outer loop
      vertex 21.1753 -20.3148 0
      vertex 20.1796 -21.4493 1.99
      vertex 20.1796 -21.4493 0
    endloop
  endfacet
  facet normal 0 0 -1
    outer loop
      vertex -19.1755 -22.4996 0
      vertex -20.1796 -21.4529 0
      vertex 19.1755 -22.4959 0
    endloop
  endfacet
  facet normal 0 0 -1
    outer loop
      vertex -18.1738 -23.4603 0
      vertex -19.1755 -22.4996 0
      vertex 18.1738 -23.4565 0
    endloop
  endfacet
  facet normal 0 0 -1
    outer loop
      vertex 18.1738 -23.4565 0
      vertex 17.1849 -24.333 0
      vertex -18.1738 -23.4603 0
    endloop
  endfacet
  facet normal 0 0 -1
    outer loop
      vertex -17.1849 -24.3367 0
      vertex -18.1738 -23.4603 0
      vertex 17.1849 -24.333 0
    endloop
  endfacet
  facet normal 0 0 -1
    outer loop
      vertex 17.1849 -24.333 0
      vertex 16.0638 -25.2492 0
      vertex -17.1849 -24.3367 0
    endloop
  endfacet
  facet normal 0 0 -1
    outer loop
      vertex -16.0638 -25.253 0
      vertex -17.1849 -24.3367 0
      vertex 16.0638 -25.2492 0
    endloop
  endfacet
  facet normal 0 0 -1
    outer loop
      vertex 16.0638 -25.2492 0
      vertex 14.9185 -26.1087 0
      vertex -16.0638 -25.253 0
    endloop
  endfacet
  facet normal 0 0 -1
    outer loop
      vertex 20.1796 -21.4493 0
      vertex 19.1755 -22.4959 0
      vertex -20.1796 -21.4529 0
    endloop
  endfacet
  facet normal -0.811342 -0.584571 -0
    outer loop
      vertex -23.0998 -17.7794 1.99
      vertex -23.0998 -17.7794 0
      vertex -22.1522 -19.0946 0
    endloop
  endfacet
  facet normal -0.811342 -0.584571 0
    outer loop
      vertex -23.0998 -17.7794 1.99
      vertex -22.1522 -19.0946 0
      vertex -22.1522 -19.0946 1.99
    endloop
  endfacet
  facet normal 0.987891 -0.15515 0
    outer loop
      vertex 28.019 -5.86744 0
      vertex 28.3501 -3.75922 0
      vertex 28.3501 -3.75922 1.99
    endloop
  endfacet
  facet normal 0.987891 -0.15515 0
    outer loop
      vertex 28.019 -5.86744 0
      vertex 28.3501 -3.75922 1.99
      vertex 28.019 -5.86744 1.99
    endloop
  endfacet
  facet normal 0.535959 -0.844244 0
    outer loop
      vertex 13.7557 -26.9114 0
      vertex 13.7557 -26.9114 1.99
      vertex 12.5817 -27.6567 1.99
    endloop
  endfacet
  facet normal 0.535959 -0.844244 0
    outer loop
      vertex 13.7557 -26.9114 0
      vertex 12.5817 -27.6567 1.99
      vertex 12.5817 -27.6567 0
    endloop
  endfacet
  facet normal -0.600235 -0.799824 0
    outer loop
      vertex -14.9185 -26.1125 0
      vertex -14.9185 -26.1125 1.99
      vertex -16.0638 -25.253 1.99
    endloop
  endfacet
  facet normal -0.600235 -0.799824 0
    outer loop
      vertex -14.9185 -26.1125 0
      vertex -16.0638 -25.253 1.99
      vertex -16.0638 -25.253 0
    endloop
  endfacet
  facet normal -0.941828 -0.336096 0
    outer loop
      vertex -27.0252 -9.77247 0
      vertex -26.3836 -11.5704 0
      vertex -26.3836 -11.5704 1.99
    endloop
  endfacet
  facet normal -0.941828 -0.336096 0
    outer loop
      vertex -27.0252 -9.77247 0
      vertex -26.3836 -11.5704 1.99
      vertex -27.0252 -9.77247 1.99
    endloop
  endfacet
  facet normal 0.781535 -0.623861 0
    outer loop
      vertex 22.1522 -19.091 0
      vertex 22.1522 -19.091 1.99
      vertex 21.1753 -20.3148 1.99
    endloop
  endfacet
  facet normal 0.781535 -0.623861 0
    outer loop
      vertex 22.1522 -19.091 0
      vertex 21.1753 -20.3148 1.99
      vertex 21.1753 -20.3148 0
    endloop
  endfacet
  facet normal -0.78156 -0.62383 0
    outer loop
      vertex -22.1522 -19.0946 0
      vertex -21.1753 -20.3185 0
      vertex -21.1753 -20.3185 1.99
    endloop
  endfacet
  facet normal -0.78156 -0.62383 0
    outer loop
      vertex -22.1522 -19.0946 0
      vertex -21.1753 -20.3185 1.99
      vertex -22.1522 -19.0946 1.99
    endloop
  endfacet
  facet normal 0.995688 -0.0927701 0
    outer loop
      vertex 28.3501 -3.75922 0
      vertex 28.5565 -1.54396 0
      vertex 28.5565 -1.54396 1.99
    endloop
  endfacet
  facet normal 0.995688 -0.0927701 0
    outer loop
      vertex 28.3501 -3.75922 0
      vertex 28.5565 -1.54396 1.99
      vertex 28.3501 -3.75922 1.99
    endloop
  endfacet
  facet normal 0.0385201 -0.999258 0
    outer loop
      vertex 0.798989 -31.9747 0
      vertex 0.798989 -31.9747 1.99
      vertex 0 -32.0055 1.99
    endloop
  endfacet
  facet normal 0.0385201 -0.999258 0
    outer loop
      vertex 0.798989 -31.9747 0
      vertex 0 -32.0055 1.99
      vertex 0 -32.0055 0
    endloop
  endfacet
  facet normal -0.568102 -0.822958 0
    outer loop
      vertex -13.7557 -26.9152 0
      vertex -13.7557 -26.9152 1.99
      vertex -14.9185 -26.1125 1.99
    endloop
  endfacet
  facet normal -0.568102 -0.822958 0
    outer loop
      vertex -13.7557 -26.9152 0
      vertex -14.9185 -26.1125 1.99
      vertex -14.9185 -26.1125 0
    endloop
  endfacet
  facet normal 0.811342 -0.584571 0
    outer loop
      vertex 23.0998 -17.7758 1.99
      vertex 22.1522 -19.091 1.99
      vertex 22.1522 -19.091 0
    endloop
  endfacet
  facet normal 0.811342 -0.584571 0
    outer loop
      vertex 23.0998 -17.7758 1.99
      vertex 22.1522 -19.091 0
      vertex 23.0998 -17.7758 0
    endloop
  endfacet
  facet normal -0.919892 -0.392173 0
    outer loop
      vertex -26.3836 -11.5704 0
      vertex -25.6597 -13.2684 0
      vertex -25.6597 -13.2684 1.99
    endloop
  endfacet
  facet normal -0.919892 -0.392173 0
    outer loop
      vertex -26.3836 -11.5704 0
      vertex -25.6597 -13.2684 1.99
      vertex -26.3836 -11.5704 1.99
    endloop
  endfacet
  facet normal -0.751558 -0.659667 0
    outer loop
      vertex -21.1753 -20.3185 0
      vertex -20.1796 -21.4529 0
      vertex -20.1796 -21.4529 1.99
    endloop
  endfacet
  facet normal -0.751558 -0.659667 0
    outer loop
      vertex -21.1753 -20.3185 0
      vertex -20.1796 -21.4529 1.99
      vertex -21.1753 -20.3185 1.99
    endloop
  endfacet
  facet normal 0.999532 -0.0305787 0
    outer loop
      vertex 28.5565 -1.54396 1.99
      vertex 28.5565 -1.54396 0
      vertex 28.6276 0.7801 0
    endloop
  endfacet
  facet normal 0.568102 -0.822958 0
    outer loop
      vertex 14.9185 -26.1087 0
      vertex 14.9185 -26.1087 1.99
      vertex 13.7557 -26.9114 1.99
    endloop
  endfacet
  facet normal 0.568102 -0.822958 0
    outer loop
      vertex 14.9185 -26.1087 0
      vertex 13.7557 -26.9114 1.99
      vertex 13.7557 -26.9114 0
    endloop
  endfacet
  facet normal -0.535959 -0.844244 0
    outer loop
      vertex -12.5817 -27.6605 0
      vertex -12.5817 -27.6605 1.99
      vertex -13.7557 -26.9152 1.99
    endloop
  endfacet
  facet normal -0.535959 -0.844244 0
    outer loop
      vertex -12.5817 -27.6605 0
      vertex -13.7557 -26.9152 1.99
      vertex -13.7557 -26.9152 0
    endloop
  endfacet
  facet normal -0.895366 -0.445332 0
    outer loop
      vertex -25.6597 -13.2684 0
      vertex -24.8641 -14.868 0
      vertex -24.8641 -14.868 1.99
    endloop
  endfacet
  facet normal -0.895366 -0.445332 0
    outer loop
      vertex -25.6597 -13.2684 0
      vertex -24.8641 -14.868 1.99
      vertex -25.6597 -13.2684 1.99
    endloop
  endfacet
  facet normal 0.632798 -0.774317 0
    outer loop
      vertex 17.1849 -24.333 1.99
      vertex 16.0638 -25.2492 1.99
      vertex 16.0638 -25.2492 0
    endloop
  endfacet
  facet normal 0.105855 -0.994382 0
    outer loop
      vertex 1.6651 -31.8825 1.99
      vertex 0.798989 -31.9747 1.99
      vertex 0.798989 -31.9747 0
    endloop
  endfacet
  facet normal 0.105855 -0.994382 0
    outer loop
      vertex 1.6651 -31.8825 1.99
      vertex 0.798989 -31.9747 0
      vertex 1.6651 -31.8825 0
    endloop
  endfacet
  facet normal -0.721639 -0.692269 0
    outer loop
      vertex -20.1796 -21.4529 0
      vertex -19.1755 -22.4996 0
      vertex -19.1755 -22.4996 1.99
    endloop
  endfacet
  facet normal -0.721639 -0.692269 0
    outer loop
      vertex -20.1796 -21.4529 0
      vertex -19.1755 -22.4996 1.99
      vertex -20.1796 -21.4529 1.99
    endloop
  endfacet
  facet normal -0.868758 -0.495236 0
    outer loop
      vertex -24.8641 -14.868 0
      vertex -24.0072 -16.3712 0
      vertex -24.0072 -16.3712 1.99
    endloop
  endfacet
  facet normal -0.868758 -0.495236 0
    outer loop
      vertex -24.8641 -14.868 0
      vertex -24.0072 -16.3712 1.99
      vertex -24.8641 -14.868 1.99
    endloop
  endfacet
  facet normal -0.488208 -0.872727 0
    outer loop
      vertex -10.2267 -28.9779 0
      vertex -10.2267 -28.9779 1.99
      vertex -12.5817 -27.6605 1.99
    endloop
  endfacet
  facet normal -0.488208 -0.872727 0
    outer loop
      vertex -10.2267 -28.9779 0
      vertex -12.5817 -27.6605 1.99
      vertex -12.5817 -27.6605 0
    endloop
  endfacet
  facet normal 0 0 -1
    outer loop
      vertex -14.9185 -26.1125 0
      vertex -16.0638 -25.253 0
      vertex 14.9185 -26.1087 0
    endloop
  endfacet
  facet normal 0 0 -1
    outer loop
      vertex -1.6651 -31.8863 0
      vertex -3.57247 -31.5188 0
      vertex 5.66999 -30.906 0
    endloop
  endfacet
  facet normal 0 0 -1
    outer loop
      vertex 14.9185 -26.1087 0
      vertex 13.7557 -26.9114 0
      vertex -14.9185 -26.1125 0
    endloop
  endfacet
  facet normal 0 0 -1
    outer loop
      vertex 12.5817 -27.6567 0
      vertex -13.7557 -26.9152 0
      vertex 13.7557 -26.9114 0
    endloop
  endfacet
  facet normal 0 0 -1
    outer loop
      vertex -0.798989 -31.9784 0
      vertex -1.6651 -31.8863 0
      vertex 5.66999 -30.906 0
    endloop
  endfacet
  facet normal 0 0 -1
    outer loop
      vertex 0 -32.0055 0
      vertex -0.798989 -31.9784 0
      vertex 5.66999 -30.906 0
    endloop
  endfacet
  facet normal -0 0 -1
    outer loop
      vertex 0.798989 -31.9747 0
      vertex 0 -32.0055 0
      vertex 5.66999 -30.906 0
    endloop
  endfacet
  facet normal -0 0 -1
    outer loop
      vertex 1.6651 -31.8825 0
      vertex 0.798989 -31.9747 0
      vertex 5.66999 -30.906 0
    endloop
  endfacet
  facet normal 0 0 -1
    outer loop
      vertex 1.6651 -31.8825 0
      vertex 5.66999 -30.906 0
      vertex 3.57247 -31.515 0
    endloop
  endfacet
  facet normal 0.600235 -0.799824 0
    outer loop
      vertex 16.0638 -25.2492 1.99
      vertex 14.9185 -26.1087 1.99
      vertex 14.9185 -26.1087 0
    endloop
  endfacet
  facet normal 0.600235 -0.799824 0
    outer loop
      vertex 16.0638 -25.2492 1.99
      vertex 14.9185 -26.1087 0
      vertex 16.0638 -25.2492 0
    endloop
  endfacet
  facet normal 0.189194 -0.98194 0
    outer loop
      vertex 3.57247 -31.515 0
      vertex 3.57247 -31.515 1.99
      vertex 1.6651 -31.8825 1.99
    endloop
  endfacet
  facet normal 0.189194 -0.98194 0
    outer loop
      vertex 3.57247 -31.515 0
      vertex 1.6651 -31.8825 1.99
      vertex 1.6651 -31.8825 0
    endloop
  endfacet
  facet normal -0.423118 -0.906074 0
    outer loop
      vertex -7.9054 -30.0619 0
      vertex -7.9054 -30.0619 1.99
      vertex -10.2267 -28.9779 1.99
    endloop
  endfacet
  facet normal -0.423118 -0.906074 0
    outer loop
      vertex -7.9054 -30.0619 0
      vertex -10.2267 -28.9779 1.99
      vertex -10.2267 -28.9779 0
    endloop
  endfacet
  facet normal -0.8406 -0.541656 0
    outer loop
      vertex -24.0072 -16.3712 0
      vertex -23.0998 -17.7794 0
      vertex -23.0998 -17.7794 1.99
    endloop
  endfacet
  facet normal -0.8406 -0.541656 0
    outer loop
      vertex -24.0072 -16.3712 0
      vertex -23.0998 -17.7794 1.99
      vertex -24.0072 -16.3712 1.99
    endloop
  endfacet
  facet normal -0.692182 -0.721723 0
    outer loop
      vertex -18.1738 -23.4603 0
      vertex -18.1738 -23.4603 1.99
      vertex -19.1755 -22.4996 1.99
    endloop
  endfacet
  facet normal -0.692182 -0.721723 0
    outer loop
      vertex -18.1738 -23.4603 0
      vertex -19.1755 -22.4996 1.99
      vertex -19.1755 -22.4996 0
    endloop
  endfacet
  facet normal -0.663255 -0.748394 0
    outer loop
      vertex -17.1849 -24.3367 0
      vertex -17.1849 -24.3367 1.99
      vertex -18.1738 -23.4603 1.99
    endloop
  endfacet
  facet normal -0.663255 -0.748394 0
    outer loop
      vertex -17.1849 -24.3367 0
      vertex -18.1738 -23.4603 1.99
      vertex -18.1738 -23.4603 0
    endloop
  endfacet
  facet normal -0.354612 -0.935013 0
    outer loop
      vertex -5.66999 -30.9097 0
      vertex -5.66999 -30.9097 1.99
      vertex -7.9054 -30.0619 1.99
    endloop
  endfacet
  facet normal -0.354612 -0.935013 0
    outer loop
      vertex -5.66999 -30.9097 0
      vertex -7.9054 -30.0619 1.99
      vertex -7.9054 -30.0619 0
    endloop
  endfacet
  facet normal -0.27887 -0.960329 0
    outer loop
      vertex -3.57247 -31.5188 0
      vertex -3.57247 -31.5188 1.99
      vertex -5.66999 -30.9097 1.99
    endloop
  endfacet
  facet normal -0.27887 -0.960329 0
    outer loop
      vertex -3.57247 -31.5188 0
      vertex -5.66999 -30.9097 1.99
      vertex -5.66999 -30.9097 0
    endloop
  endfacet
  facet normal 1 0 0
    outer loop
      vertex 0 -32.0093 1.99
      vertex 0 -32.0093 0
      vertex 0 -32.0055 0
    endloop
  endfacet
  facet normal 1 -0 0
    outer loop
      vertex 0 -32.0093 1.99
      vertex 0 -32.0055 0
      vertex 0 -32.0055 1.99
    endloop
  endfacet
  facet normal -0.632839 -0.774283 0
    outer loop
      vertex -17.1849 -24.3367 0
      vertex -16.0638 -25.253 0
      vertex -17.1849 -24.3367 1.99
    endloop
  endfacet
  facet normal -0.632839 -0.774283 -0
    outer loop
      vertex -16.0638 -25.253 1.99
      vertex -17.1849 -24.3367 1.99
      vertex -16.0638 -25.253 0
    endloop
  endfacet
  facet normal -0.189194 -0.98194 0
    outer loop
      vertex -1.6651 -31.8863 0
      vertex -1.6651 -31.8863 1.99
      vertex -3.57247 -31.5188 1.99
    endloop
  endfacet
  facet normal -0.189194 -0.98194 0
    outer loop
      vertex -1.6651 -31.8863 0
      vertex -3.57247 -31.5188 1.99
      vertex -3.57247 -31.5188 0
    endloop
  endfacet
  facet normal -0.105741 -0.994394 0
    outer loop
      vertex -0.798989 -31.9784 1.99
      vertex -1.6651 -31.8863 1.99
      vertex -1.6651 -31.8863 0
    endloop
  endfacet
  facet normal -0.105741 -0.994394 -0
    outer loop
      vertex -0.798989 -31.9784 1.99
      vertex -1.6651 -31.8863 0
      vertex -0.798989 -31.9784 0
    endloop
  endfacet
  facet normal 0 0 -1
    outer loop
      vertex 28.3501 -3.75922 0
      vertex 28.019 -5.86744 0
      vertex -28.3501 -3.76047 0
    endloop
  endfacet
  facet normal 0 0 -1
    outer loop
      vertex -28.019 -5.8692 0
      vertex -28.3501 -3.76047 0
      vertex 28.019 -5.86744 0
    endloop
  endfacet
  facet normal 0 0 -1
    outer loop
      vertex 28.019 -5.86744 0
      vertex 27.5739 -7.87051 0
      vertex -28.019 -5.8692 0
    endloop
  endfacet
  facet normal 0 0 -1
    outer loop
      vertex -27.5739 -7.87265 0
      vertex -28.019 -5.8692 0
      vertex 27.5739 -7.87051 0
    endloop
  endfacet
  facet normal 0 0 -1
    outer loop
      vertex 27.5739 -7.87051 0
      vertex 27.0252 -9.76995 0
      vertex -27.5739 -7.87265 0
    endloop
  endfacet
  facet normal 0 0 -1
    outer loop
      vertex -28.3501 -3.76047 0
      vertex -28.5565 -1.54459 0
      vertex 28.3501 -3.75922 0
    endloop
  endfacet
  facet normal 0 0 -1
    outer loop
      vertex 28.5565 -1.54396 0
      vertex 28.3501 -3.75922 0
      vertex -28.5565 -1.54459 0
    endloop
  endfacet
  facet normal 0 0 -1
    outer loop
      vertex -28.5565 -1.54459 0
      vertex -28.6276 0.7801 0
      vertex 28.5565 -1.54396 0
    endloop
  endfacet
  facet normal -0 0 -1
    outer loop
      vertex 28.6276 0.7801 0
      vertex 28.5565 -1.54396 0
      vertex -28.6276 0.7801 0
    endloop
  endfacet
  facet normal 0 0 -1
    outer loop
      vertex -27.0252 -9.77247 0
      vertex -27.5739 -7.87265 0
      vertex 27.0252 -9.76995 0
    endloop
  endfacet
  facet normal 0 0 -1
    outer loop
      vertex 24.0072 -16.3676 0
      vertex 23.0998 -17.7758 0
      vertex -24.0072 -16.3712 0
    endloop
  endfacet
  facet normal 0 0 -1
    outer loop
      vertex -26.3836 -11.5704 0
      vertex -27.0252 -9.77247 0
      vertex 26.3836 -11.5676 0
    endloop
  endfacet
  facet normal 0 0 1
    outer loop
      vertex 28.5565 -1.54396 1.99
      vertex -28.6276 0.7801 1.99
      vertex -28.5565 -1.54459 1.99
    endloop
  endfacet
  facet normal 0 -0 1
    outer loop
      vertex 24.8641 -14.8647 1.99
      vertex 28.3501 -3.75922 1.99
      vertex 24.0072 -16.3676 1.99
    endloop
  endfacet
  facet normal 0 -0 1
    outer loop
      vertex 25.6597 -13.2654 1.99
      vertex 28.3501 -3.75922 1.99
      vertex 24.8641 -14.8647 1.99
    endloop
  endfacet
  facet normal 0 -0 1
    outer loop
      vertex 26.3836 -11.5676 1.99
      vertex 28.3501 -3.75922 1.99
      vertex 25.6597 -13.2654 1.99
    endloop
  endfacet
  facet normal 0 -0 1
    outer loop
      vertex 27.0252 -9.76995 1.99
      vertex 28.3501 -3.75922 1.99
      vertex 26.3836 -11.5676 1.99
    endloop
  endfacet
  facet normal 0 -0 1
    outer loop
      vertex 27.5739 -7.87051 1.99
      vertex 28.3501 -3.75922 1.99
      vertex 27.0252 -9.76995 1.99
    endloop
  endfacet
  facet normal 0 -0 1
    outer loop
      vertex 28.019 -5.86744 1.99
      vertex 28.3501 -3.75922 1.99
      vertex 27.5739 -7.87051 1.99
    endloop
  endfacet
  facet normal 0 0 1
    outer loop
      vertex 28.5565 -1.54396 1.99
      vertex 22.1522 -19.091 1.99
      vertex 28.3501 -3.75922 1.99
    endloop
  endfacet
  facet normal 0 -0 1
    outer loop
      vertex 21.1753 -20.3148 1.99
      vertex 28.5565 -1.54396 1.99
      vertex 20.1796 -21.4493 1.99
    endloop
  endfacet
  facet normal 0 0 1
    outer loop
      vertex 19.1755 -22.4959 1.99
      vertex 20.1796 -21.4493 1.99
      vertex 28.5565 -1.54396 1.99
    endloop
  endfacet
  facet normal 0 0 1
    outer loop
      vertex 18.1738 -23.4565 1.99
      vertex 19.1755 -22.4959 1.99
      vertex 28.5565 -1.54396 1.99
    endloop
  endfacet
  facet normal 0 -0 1
    outer loop
      vertex 22.1522 -19.091 1.99
      vertex 28.5565 -1.54396 1.99
      vertex 21.1753 -20.3148 1.99
    endloop
  endfacet
  facet normal 0 -0 1
    outer loop
      vertex 23.0998 -17.7758 1.99
      vertex 28.3501 -3.75922 1.99
      vertex 22.1522 -19.091 1.99
    endloop
  endfacet
  facet normal 0 -0 1
    outer loop
      vertex 24.0072 -16.3676 1.99
      vertex 28.3501 -3.75922 1.99
      vertex 23.0998 -17.7758 1.99
    endloop
  endfacet
  facet normal 0 0 1
    outer loop
      vertex 17.1849 -24.333 1.99
      vertex 18.1738 -23.4565 1.99
      vertex 28.5565 -1.54396 1.99
    endloop
  endfacet
  facet normal 0 0 -1
    outer loop
      vertex 7.9054 -30.0581 0
      vertex 5.66999 -30.906 0
      vertex -7.9054 -30.0619 0
    endloop
  endfacet
  facet normal 0 0 -1
    outer loop
      vertex -5.66999 -30.9097 0
      vertex -7.9054 -30.0619 0
      vertex 5.66999 -30.906 0
    endloop
  endfacet
  facet normal 0 0 -1
    outer loop
      vertex -7.9054 -30.0619 0
      vertex -10.2267 -28.9779 0
      vertex 7.9054 -30.0581 0
    endloop
  endfacet
  facet normal 0 0 -1
    outer loop
      vertex 10.2267 -28.9741 0
      vertex 7.9054 -30.0581 0
      vertex -10.2267 -28.9779 0
    endloop
  endfacet
  facet normal 0 0 -1
    outer loop
      vertex -10.2267 -28.9779 0
      vertex -12.5817 -27.6605 0
      vertex 10.2267 -28.9741 0
    endloop
  endfacet
  facet normal 0 0 -1
    outer loop
      vertex 12.5817 -27.6567 0
      vertex 10.2267 -28.9741 0
      vertex -12.5817 -27.6605 0
    endloop
  endfacet
  facet normal 0 0 -1
    outer loop
      vertex -13.7557 -26.9152 0
      vertex 12.5817 -27.6567 0
      vertex -12.5817 -27.6605 0
    endloop
  endfacet
  facet normal 0 0 -1
    outer loop
      vertex -14.9185 -26.1125 0
      vertex 13.7557 -26.9114 0
      vertex -13.7557 -26.9152 0
    endloop
  endfacet
  facet normal 0 0 -1
    outer loop
      vertex -3.57247 -31.5188 0
      vertex -5.66999 -30.9097 0
      vertex 5.66999 -30.906 0
    endloop
  endfacet
  facet normal 0 0 -1
    outer loop
      vertex 0 -32.0093 0
      vertex -0.798989 -31.9784 0
      vertex 0 -32.0055 0
    endloop
  endfacet
  facet normal 0 0 -1
    outer loop
      vertex -21.1753 -20.3185 0
      vertex -22.1522 -19.0946 0
      vertex 21.1753 -20.3148 0
    endloop
  endfacet
  facet normal 0 0 -1
    outer loop
      vertex 22.1522 -19.091 0
      vertex 21.1753 -20.3148 0
      vertex -22.1522 -19.0946 0
    endloop
  endfacet
  facet normal 0 0 -1
    outer loop
      vertex -22.1522 -19.0946 0
      vertex -23.0998 -17.7794 0
      vertex 22.1522 -19.091 0
    endloop
  endfacet
  facet normal 0 0 -1
    outer loop
      vertex 23.0998 -17.7758 0
      vertex 22.1522 -19.091 0
      vertex -23.0998 -17.7794 0
    endloop
  endfacet
  facet normal 0 0 -1
    outer loop
      vertex 21.1753 -20.3148 0
      vertex 20.1796 -21.4493 0
      vertex -21.1753 -20.3185 0
    endloop
  endfacet
  facet normal 0 0 -1
    outer loop
      vertex 27.0252 -9.76995 0
      vertex 26.3836 -11.5676 0
      vertex -27.0252 -9.77247 0
    endloop
  endfacet
  facet normal 0 0 -1
    outer loop
      vertex -23.0998 -17.7794 0
      vertex -24.0072 -16.3712 0
      vertex 23.0998 -17.7758 0
    endloop
  endfacet
  facet normal 0 -0 1
    outer loop
      vertex 3.57247 -31.515 1.99
      vertex 28.5565 -1.54396 1.99
      vertex 1.6651 -31.8825 1.99
    endloop
  endfacet
  facet normal 0 0 1
    outer loop
      vertex 0.798989 -31.9747 1.99
      vertex 1.6651 -31.8825 1.99
      vertex 28.5565 -1.54396 1.99
    endloop
  endfacet
  facet normal 0 -0 1
    outer loop
      vertex 5.66999 -30.906 1.99
      vertex 28.5565 -1.54396 1.99
      vertex 3.57247 -31.515 1.99
    endloop
  endfacet
  facet normal 0 -0 1
    outer loop
      vertex 7.9054 -30.0581 1.99
      vertex 28.5565 -1.54396 1.99
      vertex 5.66999 -30.906 1.99
    endloop
  endfacet
  facet normal 0 -0 1
    outer loop
      vertex 10.2267 -28.9741 1.99
      vertex 28.5565 -1.54396 1.99
      vertex 7.9054 -30.0581 1.99
    endloop
  endfacet
  facet normal 0 -0 1
    outer loop
      vertex 12.5817 -27.6567 1.99
      vertex 28.5565 -1.54396 1.99
      vertex 10.2267 -28.9741 1.99
    endloop
  endfacet
  facet normal 0 -0 1
    outer loop
      vertex 13.7557 -26.9114 1.99
      vertex 28.5565 -1.54396 1.99
      vertex 12.5817 -27.6567 1.99
    endloop
  endfacet
  facet normal 0 -0 1
    outer loop
      vertex 14.9185 -26.1087 1.99
      vertex 28.5565 -1.54396 1.99
      vertex 13.7557 -26.9114 1.99
    endloop
  endfacet
  facet normal 0 -0 1
    outer loop
      vertex 16.0638 -25.2492 1.99
      vertex 28.5565 -1.54396 1.99
      vertex 14.9185 -26.1087 1.99
    endloop
  endfacet
  facet normal 0 -0 1
    outer loop
      vertex 17.1849 -24.333 1.99
      vertex 28.5565 -1.54396 1.99
      vertex 16.0638 -25.2492 1.99
    endloop
  endfacet
  facet normal 0 0 1
    outer loop
      vertex 0 -32.0055 1.99
      vertex 0.798989 -31.9747 1.99
      vertex 28.5565 -1.54396 1.99
    endloop
  endfacet
  facet normal -0 0 1
    outer loop
      vertex -28.5565 -1.54459 1.99
      vertex -28.3501 -3.76047 1.99
      vertex 28.5565 -1.54396 1.99
    endloop
  endfacet
  facet normal 1 0 0
    outer loop
      vertex 28.6276 38.0537 1.99
      vertex 28.6276 0.7801 1.99
      vertex 28.6276 0.7801 0
    endloop
  endfacet
  facet normal 1 0 0
    outer loop
      vertex 28.6276 38.0537 1.99
      vertex 28.6276 0.7801 0
      vertex 28.6276 38.0537 0
    endloop
  endfacet
  facet normal 0 -0 1
    outer loop
      vertex -27.5739 -7.87265 1.99
      vertex 28.5565 -1.54396 1.99
      vertex -28.019 -5.8692 1.99
    endloop
  endfacet
  facet normal 0 -0 1
    outer loop
      vertex -27.0252 -9.77247 1.99
      vertex 28.5565 -1.54396 1.99
      vertex -27.5739 -7.87265 1.99
    endloop
  endfacet
  facet normal 0 -0 1
    outer loop
      vertex -26.3836 -11.5704 1.99
      vertex 28.5565 -1.54396 1.99
      vertex -27.0252 -9.77247 1.99
    endloop
  endfacet
  facet normal 0 -0 1
    outer loop
      vertex -25.6597 -13.2684 1.99
      vertex 28.5565 -1.54396 1.99
      vertex -26.3836 -11.5704 1.99
    endloop
  endfacet
  facet normal 0 -0 1
    outer loop
      vertex -24.8641 -14.868 1.99
      vertex 28.5565 -1.54396 1.99
      vertex -25.6597 -13.2684 1.99
    endloop
  endfacet
  facet normal -0 0 1
    outer loop
      vertex -28.3501 -3.76047 1.99
      vertex -28.019 -5.8692 1.99
      vertex 28.5565 -1.54396 1.99
    endloop
  endfacet
  facet normal 0 -0 1
    outer loop
      vertex -24.0072 -16.3712 1.99
      vertex 28.5565 -1.54396 1.99
      vertex -24.8641 -14.868 1.99
    endloop
  endfacet
  facet normal 0 -0 1
    outer loop
      vertex -13.7557 -26.9152 1.99
      vertex 28.5565 -1.54396 1.99
      vertex -14.9185 -26.1125 1.99
    endloop
  endfacet
  facet normal 0 -0 1
    outer loop
      vertex -12.5817 -27.6605 1.99
      vertex 28.5565 -1.54396 1.99
      vertex -13.7557 -26.9152 1.99
    endloop
  endfacet
  facet normal 0 -0 1
    outer loop
      vertex -10.2267 -28.9779 1.99
      vertex 28.5565 -1.54396 1.99
      vertex -12.5817 -27.6605 1.99
    endloop
  endfacet
  facet normal 0 -0 1
    outer loop
      vertex -7.9054 -30.0619 1.99
      vertex 28.5565 -1.54396 1.99
      vertex -10.2267 -28.9779 1.99
    endloop
  endfacet
  facet normal 0 -0 1
    outer loop
      vertex -5.66999 -30.9097 1.99
      vertex 28.5565 -1.54396 1.99
      vertex -7.9054 -30.0619 1.99
    endloop
  endfacet
  facet normal 0 -0 1
    outer loop
      vertex -3.57247 -31.5188 1.99
      vertex 28.5565 -1.54396 1.99
      vertex -5.66999 -30.9097 1.99
    endloop
  endfacet
  facet normal 0 -0 1
    outer loop
      vertex -1.6651 -31.8863 1.99
      vertex 28.5565 -1.54396 1.99
      vertex -3.57247 -31.5188 1.99
    endloop
  endfacet
  facet normal 0 -0 1
    outer loop
      vertex -0.798989 -31.9784 1.99
      vertex 28.5565 -1.54396 1.99
      vertex -1.6651 -31.8863 1.99
    endloop
  endfacet
  facet normal 0 -0 1
    outer loop
      vertex 0 -32.0093 1.99
      vertex 0 -32.0055 1.99
      vertex -0.798989 -31.9784 1.99
    endloop
  endfacet
  facet normal 0 -0 1
    outer loop
      vertex 0 -32.0055 1.99
      vertex 28.5565 -1.54396 1.99
      vertex -0.798989 -31.9784 1.99
    endloop
  endfacet
  facet normal 0 -0 1
    outer loop
      vertex -14.9185 -26.1125 1.99
      vertex 28.5565 -1.54396 1.99
      vertex -16.0638 -25.253 1.99
    endloop
  endfacet
  facet normal 0 -0 1
    outer loop
      vertex -23.0998 -17.7794 1.99
      vertex 28.5565 -1.54396 1.99
      vertex -24.0072 -16.3712 1.99
    endloop
  endfacet
  facet normal 0 -0 1
    outer loop
      vertex -21.1753 -20.3185 1.99
      vertex 28.5565 -1.54396 1.99
      vertex -22.1522 -19.0946 1.99
    endloop
  endfacet
  facet normal 0 -0 1
    outer loop
      vertex -20.1796 -21.4529 1.99
      vertex 28.5565 -1.54396 1.99
      vertex -21.1753 -20.3185 1.99
    endloop
  endfacet
  facet normal 0 -0 1
    outer loop
      vertex -19.1755 -22.4996 1.99
      vertex 28.5565 -1.54396 1.99
      vertex -20.1796 -21.4529 1.99
    endloop
  endfacet
  facet normal 0 -0 1
    outer loop
      vertex -18.1738 -23.4603 1.99
      vertex 28.5565 -1.54396 1.99
      vertex -19.1755 -22.4996 1.99
    endloop
  endfacet
  facet normal 0 -0 1
    outer loop
      vertex -17.1849 -24.3367 1.99
      vertex 28.5565 -1.54396 1.99
      vertex -18.1738 -23.4603 1.99
    endloop
  endfacet
  facet normal 0 -0 1
    outer loop
      vertex -16.0638 -25.253 1.99
      vertex 28.5565 -1.54396 1.99
      vertex -17.1849 -24.3367 1.99
    endloop
  endfacet
  facet normal 0 -0 1
    outer loop
      vertex -22.1522 -19.0946 1.99
      vertex 28.5565 -1.54396 1.99
      vertex -23.0998 -17.7794 1.99
    endloop
  endfacet
  facet normal 0.999532 -0.0305787 0
    outer loop
      vertex 28.6276 0.7801 0
      vertex 28.6276 0.7801 1.99
      vertex 28.5565 -1.54396 1.99
    endloop
  endfacet
  facet normal -0.999533 -0.0305704 -0
    outer loop
      vertex -28.6276 0.7801 1.99
      vertex -28.6276 0.7801 0
      vertex -28.5565 -1.54459 1.99
    endloop
  endfacet
endsolid OpenSCAD_Model
