<svg id="černá" xmlns="http://www.w3.org/2000/svg" viewBox="0 0 454.68 604.39"><defs><style>.cls-1{fill:#231f20;}</style></defs><title>cerna</title><path class="cls-1" d="M0,0V296C0,396.79,49.41,460.1,90.87,495.47c46.88,40,104.14,60.93,136.47,60.93s89.59-20.93,136.47-60.93c41.45-35.37,90.87-98.68,90.87-199.43V0H0ZM447.68,296c0,98.09-48.08,159.7-88.41,194.11-45.59,38.9-100.88,59.25-131.93,59.25S141,529,95.41,490.14C55.08,455.73,7,394.12,7,296V7H447.68V296Z"/><path d="M143.29,405.56c-1.23,0-2.42.17-2.42,3.63,0,0.85-.11,1.55.79,1.55,2.15,0,2.66-4,2.66-4.55S143.92,405.56,143.29,405.56Z"/><path d="M146.94,403.86c-0.41,0-1.7-.4-1.7,5a0.76,0.76,0,0,0,.8.85c0.45,0,1.78.11,1.78-3.68C147.82,403.92,147.35,403.86,146.94,403.86Z"/><path d="M148.7,177.32c0.88,0,1.08.68,2.27,0.68a1.55,1.55,0,0,0,1.47-1.64c0-.48-1.22-2-3.23-2s-1.64,1.11-3.88,1.11-4.2-2.66-4.2-5.9c0-1.36.45-2.18,0.45-4s-0.17-4.22-2.55-4.22a1.46,1.46,0,0,0-1.45,1.3c0,0.62.93,1.16,0.93,3.06s-0.54,2.75-.54,4.73,0.79,7.74,6.55,7.74C146.6,178.2,147.82,177.32,148.7,177.32Z"/><path d="M139.51,407.43c-0.4,0-2.1.57-2.1,1.85,0,0.64-.06,1.66,1.25,1.66s1.59-2.49,1.59-2.89A0.66,0.66,0,0,0,139.51,407.43Z"/><path d="M135.6,409.3c-0.34,0-2.67.51-2.67,2.27,0,0.51.34,0.62,0.91,0.62s2.84-1.59,2.84-2.32S135.94,409.3,135.6,409.3Z"/><path d="M139.79,245.18c-0.51,0-.62-0.11-0.62-0.62s0.11-.79-0.4-0.79a1.8,1.8,0,0,0-1.64,1.87,1.66,1.66,0,0,0,1.53,1.7,2,2,0,0,0,1.76-1.42A0.65,0.65,0,0,0,139.79,245.18Z"/><path d="M168,393.32c0-.45-0.68-0.77-1.65-0.77s-2.61,1.28-2.61,3.67c0,1.67,1.25,3.33,1.25,6,0,2.49-1.93,2.21-2.72,2.21-4.19,0-2.44-1.9-5.27-1.9-3.12,0-8.28,1.5-8.28,3.54,0,0.71.68,0.71,1.59,0.71s2.15-1.22,4.25-1.22c4.31,0,2.61,2,7.14,2,4.08,0,6.86-4.48,6.86-6.52s-1.47-4-1.47-5.33S168,393.77,168,393.32Z"/><path d="M146.37,240.19c-0.68,0-.91-0.17-0.91-0.4a0.52,0.52,0,0,0-.43-0.48,1.93,1.93,0,0,0-1.33,1.33c0,0.4-.23,1.87,2.49,1.87a1.83,1.83,0,0,0,2.1-1.87C148.3,240.19,147,240.19,146.37,240.19Z"/><path d="M134.8,245.91c-1.25,0-1.7,1.76-1.7,2.16a1.11,1.11,0,0,0,1.3,1.08,1.31,1.31,0,0,0,1.42-1.3C135.82,247.22,136.05,245.91,134.8,245.91Z"/><path d="M143.25,242.4c-0.62,0-.57-1-1.25-1s-1.59,1.36-1.59,2,1.08,1.36,3.06,1.36a1.33,1.33,0,0,0,1.36-1.36A2.13,2.13,0,0,0,143.25,242.4Z"/><path d="M183.79,84.53c-1,0-1.22,1.83-1.22,2.2s0.06,0.68,1.22.68,1.4-1.23,1.4-1.8A1.39,1.39,0,0,0,183.79,84.53Z"/><path d="M232.58,69c-11.23,1.49-15.89,0-22.7-4.3l-1-.64-0.68,1c-3.17,4.65-9.11,7.66-9.17,7.69a1.25,1.25,0,0,0,1.12,2.24A30,30,0,0,0,203,73.25a7.07,7.07,0,0,0,2.32,4.54,11.09,11.09,0,0,0,7.47,2.85,9.47,9.47,0,0,0,4-.82c1.76-.81,4.55-2.94,4.77-8a46.41,46.41,0,0,0,11.42-.36A1.25,1.25,0,1,0,232.58,69Zm-16.9,8.6A8.39,8.39,0,0,1,207,76a4.38,4.38,0,0,1-1.32-4.72,24.9,24.9,0,0,0,3.85-3.87,30.08,30.08,0,0,0,9.48,4C219,74.43,217.83,76.56,215.68,77.55Z"/><path d="M181.21,89.24c-1.33,0-1.62,1.59-1.62,2s0,0.79,1.16.79,2.61-1,2.61-1.87S181.89,89.24,181.21,89.24Z"/><path d="M187.44,88.25c-1.19,0-1.19,1.3-1.19,1.9s1.53,0.71,2.3.71,1.11-.91,1.11-1.61S188.12,88.25,187.44,88.25Z"/><path d="M133.3,153.22c-0.77,0-1.56.57-1.56,2,0,1,.28,2.21,1.19,2.21a1.41,1.41,0,0,0,1.36-1.36c0-1.42.57-1.13,0.57-2.16C134.86,153.39,134.07,153.22,133.3,153.22Z"/><path d="M138.35,157.59a0.93,0.93,0,0,0-1.1-.94c-0.75,0-2.61.28-2.61,3a1.31,1.31,0,0,0,1.47,1.59,1,1,0,0,0,1.13-1c0-.4-0.17-0.38-0.17-0.84C137.07,158.38,138.35,158.15,138.35,157.59Z"/><path d="M129.48,150.44c-1.13,0-1.47.45-1.47,1.76a0.94,0.94,0,0,0,.68,1c0.23,0,2.27-.23,2.27-1.81C130.95,150.32,130.1,150.44,129.48,150.44Z"/><path d="M268.43,84.28a5.45,5.45,0,0,0,5.36-5.78,0.83,0.83,0,0,0-.82-0.79c-1.47,0-1.08,2.27-2.27,2.27s-2.5-1-2.5-5.78c0-5.9,2.4-7,3.25-7,1.33,0,.27,3.73,2,3.73,0.85,0,1-1,1-1.64s0.11-6.45-2-6.45c-1.76,0-7.46,1.86-7.46,6.53,0,1.56.42,2.92,0.42,4.62s-0.78,3.59-.78,5.74A4.89,4.89,0,0,0,268.43,84.28Z"/><path d="M127.49,147.27c-0.62,0-1.76.57-1.76,1.36,0,0.4.28,0.57,1,.57a2.54,2.54,0,0,0,1.64-1.47C128.34,147.44,128.11,147.27,127.49,147.27Z"/><path d="M212.38,76.29c3.44,0,5.37-2.21,5.37-3,0-.28-0.06-0.85-0.51-0.85s-2,1.36-4,1.36c-0.57,0-1.08-.06-1.08-0.68s0.51-1.19.51-1.81a2,2,0,0,0-2.1-2c-1.36,0-2,2-2,3S208.56,76.29,212.38,76.29Z"/><path d="M289.46,421.75c0,0.4.58,4.42,6.42,4.42a4.65,4.65,0,0,1,4.72,4.15c0,4.53-1.33,3.4-3.77,3.4-4.87,0-5.73,6.48-4.31,6.48,2.32,0,2.1-3.06,4.65-3.06s6.46-2.44,6.46-6.58S301.77,423,296.1,423c-5,0-2.52-3.46-4.51-3.46A2.36,2.36,0,0,0,289.46,421.75Z"/><path d="M286.6,452.39c-0.54,0-1.28,2.15-1.28,3.17,0,0.62.34,1.64,1.19,1.64a1.45,1.45,0,0,0,1.36-1.25C287.88,455.56,288.22,452.39,286.6,452.39Z"/><path d="M290.54,440.43a2.28,2.28,0,0,0-1.42,1.76,11.25,11.25,0,0,0,1.64,1.64,16.08,16.08,0,0,0,1.76,2,1.79,1.79,0,0,0,1.53-1.47C294.05,442.81,291.22,440.43,290.54,440.43Z"/><path d="M287.91,448c-1.11,0-1.45,1.36-1.45,1.64,0,0.74,1.82,3.18,2.33,3.18a1.23,1.23,0,0,0,1.19-1.19C290,450.92,289,448,287.91,448Z"/><path d="M289.07,443.83a1.51,1.51,0,0,0-1.47,1.13,16.61,16.61,0,0,0,1.25,2.38c0.68,1.27,1.34,2.66,1.7,2.66a1.47,1.47,0,0,0,1.08-1.47C291.62,448,290.54,443.83,289.07,443.83Z"/><path d="M438.25,222.17l-0.13-1.25h0c4.46-17.22,1.95-21.53.28-24.38,1.69-4.51,2.14-12.27-.35-17.78L437,176.41l-1.52,2.09c-3.38,4.66-10.79,9.43-16.76,13.28-2.35,1.51-4.38,2.82-5.83,3.91-0.27-19-23.19-54.37-29.77-60.44,4.68-2.48,11.79-2.65,15.36-.53,4.21,2.5,5.45,7.43,6.11,11.93l0.34,2.34,2-1.31c6.2-4.11,9.65-8.77,10.26-13.84a14.52,14.52,0,0,0-4-11.51c10.79-8.92,10.78-16.16,10.77-22.55V99.31h0a37.65,37.65,0,0,0,2.55-24.38c3.73-13.06-.24-21-2.86-26.2l-0.47-.94h0c1-10.37-3.25-18.45-7.91-21.07l-2-1.11L413,27.86c-0.82,7.5-4.55,13.92-8.17,20.14-2.92,5-5.68,9.77-7,15h0c-4.78-3.18-9.41-4.8-13.77-4.8a15.25,15.25,0,0,0-7.66,2,15.85,15.85,0,0,0-7.62,11.08L368.39,74l2.5-1.09c3.49-1.53,6.74-1.37,9.35.46,4.14,2.92,5.93,9.5,4.45,16.38-2.31,10.7-13.33,21.6-19.7,27.14C350.59,104.36,347,83.69,350.67,77.7c1.76-2.91,4.94-3.34,6.67-3.34a12.17,12.17,0,0,1,3.49.53l2.78,0.83L362.69,73c-2.27-6.72-6.31-10.71-11.68-11.53a13.72,13.72,0,0,0-2.07-.15c-6.53,0-12.56,4.44-15.14,8.83-0.61-2.45-1.41-5-2.27-7.68-2.85-9-6.4-20.22-3.94-33.94l0.58-3.23-2.82,1.68c-5.9,3.51-9.35,13.75-10.26,16.81-11.29,11.58-10.76,24.12-8.79,28.06h0c-7.06,10.09-1.78,22.51,0,26.07h0c-1.37,11.68,1,14.81,4,18.78,0.68,0.89,1.45,1.89,2.19,3.05-4,4.15-5.74,8.94-4.91,13.85,0.86,5.07,4.49,10.09,9.69,13.43l2.35,1.51,0-2.79c-0.08-5.52,1.49-8.89,4.83-10.31a9.63,9.63,0,0,1,3.79-.69c6.56,0,14.39,4.75,15.68,6.26l-0.16.21-0.68.86h0c-14.7,18.93-26.5,42.65-27,54.48-10.54-5-16.36-8.57-20.1-12.46l-1.59-1.65-0.88,2.12c-4.33,10.48-2.7,15.58-1,21,0.24,0.75.48,1.5,0.7,2.28h0c-3.13,9.44-1.69,14.75,2.27,21.83-3.45,10.64-.69,14.09,4.82,21h0c-1.11,11.4,1,18.86,7.09,24.94h0c0.87,11.57,4.26,16.72,11.05,23.24h0c2.4,8.61,8.27,15.14,17.43,19.42h0c2.62,11.66,11.43,16.43,17.86,19.91h0a15.48,15.48,0,0,1-4.24,14.42c-2.13,2-4.58,2.67-6.74,2-3.93-1.3-12-7.71-20.48-20.27-13.33-19.79-24.3-42-32.73-60.88-6.06-13.6-9.87-25.35-15.47-34.28l0.57-.06a17,17,0,0,0,7-2l2.22-1.19-2.1-1.39c-5.68-3.75-9.5-12.55-11.78-17.82L269.31,215c10.39-11,9.83-26.58,9.46-36.88,0-1.36-.3-2.71-0.32-3.87,4.32,3.22,12.95,5.91,19,5.91a11.14,11.14,0,0,0,4.94-.93,4.63,4.63,0,0,0,1.14-.78L306,176l-3.43-.21c-5.9-.36-8.15-7.85-10.14-14.46-1.22-4.07-2.89-7.63-4-10.61,2.16-3.83,2.69-10.89.35-18.57,3.82-10.57,1.36-15.82-1.7-20.69,9.86-4.88,9.75-16,9.3-20.67L296,86.95l-2.33,3.13a8.11,8.11,0,0,1-3.26,2.65,9.28,9.28,0,0,1-3.76.73c-3.78,0-7.8-1.82-10.46-3l-1-.47c8.91-8.19,8.09-15.45,6.1-24.09l-0.35-1.53c-1-4.44-1.61-7.12-3.47-8.15a4.67,4.67,0,0,0-2.3-.51c-2.38,0-9.13,2.14-11.45,3.46,0.59-17.72,7.27-34.48,8.92-37l0.59-.89c0.2-.29.41-0.62,0.59-0.9l1.27-2L272.63,18a16.68,16.68,0,0,0-1.7-.07c-4.78,0-9.67,4.9-12,7.26l-0.22.22h0c-5.68,0-6.92,1-7.65,2a1.22,1.22,0,0,1-1.14.63c-1.3,0-1.47-.44-1.69-1-0.51-1.28-1.59-2.18-5.39-2.74-1.63-.24-2.52-2-3.68-4.58-1.48-3.31-3.16-7.06-7.88-7.06s-7.17,4.57-8.86,7.9c-0.85,1.68-1.83,3.47-2.4,3.54-3.55.4-5.16,0.59-5.73,2.58-0.21.73-.31,1.19-2.12,1.19-1.36,0-1.49-.37-1.68-0.89l-0.15-.41L210,26.31c-0.39-.3-1.25-0.7-4.17-0.7-0.47,0-.85-0.47-1.57-1.46a10.9,10.9,0,0,0-3.76-3.59,15.62,15.62,0,0,0-7-2,2.88,2.88,0,0,0-2.43.88c-0.59.78-.36,2,0.67,3.72,6.45,10.56,8.14,26.91,8.78,33.06l0,0.18c0.08,0.82.15,1.43,0.2,1.77-6,2.07-7.3,3.82-8.93,6.51a20.35,20.35,0,0,1-2,2.84,78.28,78.28,0,0,0-15.3,8.5l-0.32.23c-2.39,1.74-4.12,3-4.28,4.79-0.12,1.39.78,3,2.82,5.12,0,4.24,1.05,7.41,3.14,9.42,1.82,1.75,4.34,2.6,7.73,2.6l1.2,0,0.59,0,0.06,0.08a36.9,36.9,0,0,0,5.36,7.43h0a56.47,56.47,0,0,1-8.5.59c-6.07,0-16.93-.88-21.55-6.79-2.07-2.65-2.6-6-1.56-10l0.91-3.54L157,87.78c-5.63,3.38-8.45,8.6-7.94,14.71a17.2,17.2,0,0,0,13.15,15.17,52.69,52.69,0,0,0,11.05,1c3.73,0,7.37-.26,9.79-0.45l2.12-.17c2-.17,3.29-0.27,4.09-0.27a1.71,1.71,0,0,1,.87.11,35.87,35.87,0,0,0-4.67,8.64,35.86,35.86,0,0,1-4.44,8.27l-1.42,1.83,2.26,0.54a7.44,7.44,0,0,0,1.73.2,20.83,20.83,0,0,0,5.56-1.08,20.13,20.13,0,0,1,5.28-1c6.62,0,2.54,5.2.25,7.71-3.28,3.59-6,5.86-8.36,6.95a13.55,13.55,0,0,1-5.45,1.42,4.06,4.06,0,0,1-3-1.05c-1.19-1.29-1-3.59.44-6.83l1.33-2.91-3.09.83a26.82,26.82,0,0,0-10.23,5.2c-7.43-10.76-15.45-18.31-23-25.28a275.9,275.9,0,0,1-26.74-27.66c-9.22-10.88-6.71-15.68-4.29-20.33,2.16-4.14,4.39-8.42-1.1-16.94h0c2.68-9.77,2.46-15.07-.73-17.71l-1.75-1.44L108,39.38c-0.85,2.84-3.4,4.92-5.27,6.45l-0.14.11a15.23,15.23,0,0,0-1.54,1.36,13.57,13.57,0,0,0-6.39-1.55,14.56,14.56,0,0,0-6.93,1.69h0c-3.59-8.38-9.59-10.09-13.89-9.5-5.73-6-13.16-9.38-21.06-5.89,0.53,0.92,5.74,9,6.18,9.71-8,4.76-7.57,14.46-7.23,20.83-3.46,1.44-6.54,3.74-7.37,5.53-3.74.27-12.61,3.36-12.61,7.23,0,2.18,1.83,3.07,4,4.09a12.24,12.24,0,0,1,4.55,3.13c0,5.87,1.72,10.24,5.12,13,2.77,2.23,6.56,3.36,11.28,3.36a33.07,33.07,0,0,0,6.84-.74h0a56.61,56.61,0,0,0,6.66,6c-8,6.38-6.51,12.35-6,14.6h0c-2.75,4.33-5.52,5.12-8.13,5.55l-2.49.41,1.55,2c3.59,4.59,9.35,5.28,12.46,5.28a18.12,18.12,0,0,0,2.84-.2h0a12.21,12.21,0,0,0,7.1,2.65c4.37,0,7.58-3.17,9.89-5.93,0.23-.28.43-0.51,0.58-0.68h0c4.43,4.1,6.91,8.46,6.65,11.65a3.4,3.4,0,0,1-1.4,2.66,3.77,3.77,0,0,1-2.07.71,5.63,5.63,0,0,1-3.39-1.74l-2.31-1.93L85,141.62c-1.31,6.54,3.9,9.87,9.83,13h0c-1.87,2.18-6.47,10.59-5.75,16.57l0.31,2.59,2.08-1.58c2.65-2,4.7-3,6.26-3,1.77,0,3.22,1.24,5.6,3.84a36.67,36.67,0,0,0,13.32,9.91l-0.14.62c-0.69,3-2.52,10.8-1.53,15.29l0.65,2.91,2-2.26c3.48-4,9.7-5,13.1-5.22-5,4.71-3.31,17.33-2.12,21.4h0c-5.08,2.92-10.32,6.22-15.4,9.42-14.29,9-27.79,17.51-37,17.51-7.63,0-9.45-2.32-11.38-4.78-1.72-2.2-3.51-4.48-9.6-5.28h0c-1.16-2.26-4.92-5.1-9.84-6.18a13.77,13.77,0,0,0-8.33.54l-2.13.93,1.72,1.56A10.57,10.57,0,0,1,39.05,233a15.64,15.64,0,0,0,1.5,2.64h0a14.52,14.52,0,0,0-7.9,9.54c-0.65,2.69-.3,5.16,1,6.76-3.33,2.27-7.36,5.7-7.65,9.21h0c-10.82,8.91-12.5,13.58-11.75,18.65l0.42,2.86,2.09-2a11.56,11.56,0,0,1,8.37-3.08c0.81,0,1.55.05,2.15,0.09l0.69,0h0c0.7,7.35,8,8.65,11.54,9.27a10.17,10.17,0,0,1,1.64.36h0c-0.15,2.18,1.59,6.42,3.12,8.36h0a17.8,17.8,0,0,0,3.86,13.14,10.48,10.48,0,0,0,1.31,1.32l1.85,1.54,0.56-2.34c1.4-5.86,3.8-6.29,7.3-6.29,0.45,0,2.64.08,3.29,0.08a14.83,14.83,0,0,0,8.47-2.34c5.71-3.69,8.46-8.4,9.21-15.73h0a29.43,29.43,0,0,0,10.63-2.55h0c2.84,4.07,6.4,6.54,9.78,6.8h0c1.35,1.5-1.1,9.44-1.1,9.44l2,0.06c5.3,0,10.4-6.19,12.53-10.35h0c6.57-3.07,6.76-8.69,6.19-13.25,0-.18-0.09-0.72-0.09-0.92h0A79,79,0,0,1,129,271.8c2.77-.62,4.63-0.07,5.37,1.63,1.55,3.9-1.69,7.78-2.34,9.3,8.08-5.41,10.2-8.95,10.2-8.95s1.93,0.2,2.37.71c0,8.57,4.47,15.22,7.47,17.6l2.56,2-0.13-3.27c-0.2-4.89.13-11.2,1.15-13.81h0a45.45,45.45,0,0,0,10.49-7.23c2.93,6.19,6.66,9.92,11.09,11.09l2.93,0.77c-7.51-15.6,1.42-17.56,3-18.66,4.56,4.85,35.64,24.94,46.82,35.77-4.59-.77-8.14-0.91-11.82.38,6.8,5.09,19.84,18,20.2,22.09a136.12,136.12,0,0,0-25.43-1.83,215.13,215.13,0,0,0-38.42,4,7.53,7.53,0,0,1-1.37.12c-4.56,0-11.22-3.92-12.23-7.72-0.85-3.19,5.05-7.2,5.05-7.2s-11.44-2.75-18.57,3.07a16.94,16.94,0,0,0-5.9,13.58h0a37.56,37.56,0,0,0-5.91-.47c-13.81,0-26.92,7.94-36,21.8l-2.31,3.54,4-1.29a56.83,56.83,0,0,1,17.54-2.94,82.9,82.9,0,0,1,16.41,2.05A113.35,113.35,0,0,0,149.41,350h0c-7.33,13.38-8.46,21.13-9.29,26.8-0.64,4.35-1.05,7.22-4,10.19-3.13,3.13-10,5.28-19.39,5.28A53.13,53.13,0,0,1,105,391h0c0-16.86-9.44-19.88-12.33-20.41h0c-3.11-4.72-9.5-10.63-16.93-10.35,3.29,8.73,1.76,12.33,1.9,13.47h0c-2,1.9-5.35,6.15-6.09,8.08h0C70.3,381.66,60.08,380.31,58,386c-6.12,1-13.89,2.64-16.59,9.59,9.55,0.67,9.35,1.55,10.64,3.59h0c-0.31,16.66,12.18,17.66,13.61,17.72-1.73,3.2-1.67,7.78-.85,10.91a26.42,26.42,0,0,0-.47,13l0.75,2.75,1.84-2.18c1.07-1.27,3.3-3.9,5.29-3.9a2.18,2.18,0,0,1,.67.11c3.93,2.6,7.25,3.87,10.13,3.87,4.38,0,7.19-2.86,9.9-5.63s5.28-5.39,9.29-5.39a9.42,9.42,0,0,1,1.14.07h0c0.6,4.81,4.49,8.94,6.8,10.42h0c1.59,5.86.05,7.91-1.18,9.56l-0.38.52-2.23,3.18,3.79-.86a23.49,23.49,0,0,0,13.47-8.79c7,0,9.5-10,9.5-12.61a22.26,22.26,0,0,0,4-.43c4.46,8.26,10.93,13.36,18.22,14.36l3.3,0.45-1.85-2.77c-3.31-5-4.42-7.79-4.36-8.78l1,0.59c2.81,1.67,5.72,3.4,9.34,3.4a11.9,11.9,0,0,0,4.48-.91l2.31-.93-1.91-1.6c-5.64-4.74-7.15-7.38-7.15-8.19l5.94,0.23c4.57,0.18,7.62.28,9.69,0.28,3.53,0,5-.21,5.63-2.35h0a8.21,8.21,0,0,0,2.4.29,31.3,31.3,0,0,0,10.27-2.08s1.8-.67,2.23-0.86c-14.07-9.42-10.07-21.36-7.54-31.9,1-4.06,2.26-8.25,2.42-12.37,4.83-.25,29.88-1.84,48.33-8.22-3.41,24.08-9.39,37.64-17.29,39.23a8.37,8.37,0,0,1-1.62.16c-4.7,0-9.15-4.66-11.23-6.94-2,22.58,16.45,20.14,18.81,20.14C219.68,443,227.68,458,230.38,462a23.32,23.32,0,0,0,7,7c-1.49-16.42,2.67-21.7,7.89-29.27a106,106,0,0,0,8.54-14.13c1,2.54,3.12,4.71,5.39,7,3.27,3.32,6.66,6.76,6.66,11.55,0,7.16-20.14,33.31-25.65,33.31-0.41,0-1.29-.11-2.15-0.23a47.05,47.05,0,0,0-6.46-.54c-5.4,0-9,1.6-10.74,4.74-12.05,1.27-16.21,5.61-18.5,12.81,9.75-2.66,11.42.15,14.46,2.93-0.26,2.63.14,4.79,3,8.08h0c-5.44,8.09-4.79,11.89-1.84,15.73h0c-4.2,11.76,2,19.36,2,19.36s2.42-4.2,9.14-8.73h0c2.85,2.21,7.56,2.56,12.47.92s9.16-5,10-8.15h0c0.72,0.29,1.73,1,4.53,3.26h0c1.87,10.21,9.27,10.31,9.27,10.31s-0.21-2.91,2.77-6.86a30.8,30.8,0,0,0,2.41-3.87c11.11-2.7,14.1-9.07,14.65-13.93,0.65-5.74-2-10.92-3.59-11.72h0a37.9,37.9,0,0,1,3.26-4.25h0a27.34,27.34,0,0,0,7.77,1.23c3.33,0,5.64-.78,6.68-1.51a0.71,0.71,0,0,1,.76.14,14.73,14.73,0,0,0,3.6,4.78l1.05-1.17c5-5.52,4-10.28,2.38-14-0.83-1.89-.51-6.67-0.51-6.67l-1.15-.29c-0.47-.12-1.17-0.29-1.17-3h0c9.63-2.38,13.47-7.36,13.47-7.36s-2-1.14-2.13-1.54v0h0c5.53-2.8,9.67-8.85,9.67-8.85l-2.69-.3a16.39,16.39,0,0,1-4.09-1.05,10.9,10.9,0,0,0-2.48-.7c2.1-1,7-4.69,8.7-9.86,8.58-2.83,9.88-12.09,9.88-12.09l-2.94,1.25c-1.46.62-3,1.14-3.92,0.73a1.51,1.51,0,0,1-.81-1c2.08-1.48,4.42-6.8,4.69-8.37,6.28-6.08,6.54-12.51,6.54-12.51a63,63,0,0,1-8.87.93c-9.26,0-13.12-4.07-18.48-9.72a67.57,67.57,0,0,0-15.35-12.84h0c1.66-3.61,3.11-42.46,1.64-49.18,4.73,8.56,15.5,17.17,24.92,24.68,18.87,15,38.38,30.55,34.35,63.35L356,436.18l2.92-2.47c21.72-18.33,12.69-41.93,12.6-42.16h0a55.91,55.91,0,0,0,16.08,2.34c15,0,27.58-5.95,31.8-11.54l2-2.61-3.27.21c-0.72,0-1.48.07-2.24,0.07-10.87,0-22.55-4.69-28.17-6.94l-0.59-.24h0c13.61-3,20.85-17.7,22.4-26.82l0.7-4.13L407,344.65c-6.38,5.53-15.32,8.95-21.84,11.44a67.08,67.08,0,0,0-8.09,3.45c4.1-12.12,4-15.89,4-19.88V338.2h0c5.4-1,16.82-14.27,18.21-22.74,8.57-4.7,14.42-15,15.59-22.25h0a31.94,31.94,0,0,0,10.21-21.83h0c6.05-5.77,8.22-22.38,6.8-26.08C439.4,232.94,439,229.34,438.25,222.17Zm-110-90.45a12.6,12.6,0,0,0-5,.93c-3.84,1.64-6,5.07-6.54,10.22a17,17,0,0,1-6.16-9.8c-0.31-1.84-.12-7.83,3.82-9.72,4.45-2.14,12.73,1.76,12.73-.65,0-2.13-8.65-.09-14.4-7.85-2.78-3.76-4.22-6.75-3.77-13.89,2.16,2.49,13.21,8.22,13.66,8.22,1.08,0,2-1.81,1.6-2-6.73-3.44-23.46-12-17-31,0,2.38,13,20,14.63,20,1.33,0,.85-1.53.85-1.53-3.12-4.25-23-25.46-9.07-44.62,0.79,6.75.8,13.83,2.55,20.13,1,3.46,6.07,11.34,6.58,11.34s1.34-1,1-1.36c-9.18-11-8.73-37,.24-48.05-1.3,12.55,2,22.83,4.61,31.24,0.84,2.64,1.63,5.16,2.21,7.5s1.91,11.8,3.19,15.36c0.09,0.26,1,0,1-.5-2-17.46,8.52-21.42,13.87-21.42a10.85,10.85,0,0,1,1.61.12c3.58,0.55,6.37,2.91,8.3,7a14.54,14.54,0,0,0-1.51-.08,10.42,10.42,0,0,0-9.24,4.79c-4.66,7.71-.41,29.5,14.73,42.83-4.43,4.63-12.53,14.22-17,19.66C343.36,136.26,335.16,131.71,328.25,131.71ZM297,176.84c-16.49,0-24.15-16.64-28-20.5-4.56-4.56-11-10.29-12-9-0.76,1,2.44,5,4.71,7,3,2.71,7.42,9.05,8.79,10.94,2.43,3.37,5.07,8.77,5.07,21.74,0,7.94-1.42,16.3-6.66,22.54a84.86,84.86,0,0,0-8.22-25.23c-5.14-10-10.2-16.58-10.77-14.6-0.51,1.77,3.83,9.21,6.24,13.89,2.21,4.28,5.53,10.49,9.35,30.19,1.57,8.1,5.07,15.82,10.12,19.9-1.75,0-26.22-4.31-26.22-23.7,0-3.8.23-5.32,0.23-10.52,0-.71-2.33-1.07-2.33,0,0,22.11-8.44,32-8.44,44.5-1.83-2.25-17.62-15-10.77-42.91l0.17,0c16.44,2.38,20.42-9.75,20-9.85-1.11-.24-9.61,1.57-13.52-10.22,7.09-7.37,5.53-11.77,9.75-17,8-10,11.07-18.35,11.73-22.39,0.93-5.61-.55-8.43-0.51-8.42,7.4,3,12.36,2.39,15.58.74,2.82,1,7.28,4.4,10.27,9.1,1.93,3,2.72,6.57,4.08,10.38C290,165.64,292.66,174.75,297,176.84ZM286.62,96.46a12.26,12.26,0,0,0,5-1,10.7,10.7,0,0,0,1.89-1.07c-0.1,4.7-1.33,9.69-5.23,12.7-5.24,4.05-12.76-7.74-16.17-4.82-1.91,1.63,8.82,6.39,11.71,10.81s4.59,8.46,3.1,15.12c-2.27-4.46-14.31-17-16.09-14-1.34,2.3,20,14.38,15.78,32.19-2-6.38-8-12.09-12.53-14.5,2.21-2.24,2.77-4.74,2.49-4.64-8.31,2.77-12.21-4.91-12.19-5,5.07-13.38,3.57-21.92,1-30.26a32.89,32.89,0,0,1,9.59,1.08C278,94.35,282.19,96.46,286.62,96.46ZM194.28,21.65a14.19,14.19,0,0,1,4.78,1.57,8.12,8.12,0,0,1,2.73,2.69c0.87,1.2,1.95,2.7,4,2.7a14,14,0,0,1,2.17.13,3.83,3.83,0,0,0,2.66,2,8.8,8.8,0,0,1,.72,2.61c0,5.26-9.07,7.16-6.66,9.57,2.15,2.15,7.65-4.11,8.29-4.11s6.41,6.21,8.86,3.76c2.76-2.76-6.45-2.48-6.45-9.28a7.23,7.23,0,0,1,2-5.4c0.41-.32.76-0.38,3.18-0.71s3.32-2.86,4.52-5.22c1.49-2.93,3.17-6.26,6.18-6.26,2.38,0,3.37,1.32,5.14,5.29,1.16,2.59,2.61,5.86,6,6.32s4,4,4,5.36c0,7.65-9.84,6.8-7.34,9.3,2.32,2.32,7.81-2.49,8.33-2.49s7.28,6.43,9.64,4.08c2.78-2.78-6-1.9-6-7.65,0-3.43,1.71-7.43,7.66-7.43h1.24l1.1-1.1c1.68-1.69,5.37-5.38,8.65-6.21-1.76,3.29-6.06,14.13-8,27.08-14.3-.28-27.56-0.63-33.86-0.91-2.34-.1-3.42,2.15,0,2.41,7.47,0.58,28.8.92,33.52,0.93-0.23,1.84-.4,3.73-0.52,5.62-8.41.92-53.17,0-57.31-.3C202.86,49.61,201.08,32.79,194.28,21.65Zm-5.86,75.89a34.93,34.93,0,0,0,5.88-2.26,84.9,84.9,0,0,0-.88,8.74l-0.61-.56A39.29,39.29,0,0,1,188.42,97.54Zm0.79,17.23c-0.93,0-2.26.11-4.34,0.28l-2.11.17c-2.36.19-5.92,0.44-9.54,0.44a49.94,49.94,0,0,1-10.42-.93A14.15,14.15,0,0,1,152,102.24a11.79,11.79,0,0,1,3.67-9.74,12.9,12.9,0,0,0,2.7,8.84c5.4,6.91,17.3,7.94,23.91,7.94a59.42,59.42,0,0,0,9-.63l2-.32c0,2,0,4,0,6.39C192.46,114.68,190.26,114.77,189.21,114.77Zm-14.8,30.48c-0.72,3-.39,5.35,1.2,7.06,2.32,2.52,6.86,2.65,11.9.32,2.71-1.25,5.86-3.75,9.39-7.65s8.51-8,11.6-9.56c0,4.88,8.28,9.35,9.3,9.35a2.25,2.25,0,0,0,2.21-2.21c0-2.89-3.4-2.15-.45-9.35,6.52,0.17,8.5-4.93,9.24-8.79,6.69,10.77,17.58,4.93,16.31,3.12-7-2.21-6.45-12.64-6.56-15.14,3.69-4.93-.4-10.72-1.59-12,2.72-.23,4.59-1.59,5-3.17,2-1.25,2.1-3.85,2.1-4.53s0-3.06-1.59-3.06-1,2.66-2.49,2.66c-1.81,0-9.86-6.75-13-6.75-1.19,0-1,.51-2.78.51-2.27,0-2.55-1-3.4-1a1.88,1.88,0,0,0-1.7,1.19c0,1,4.24,1.78,9.18,3.34,2.15,0.68,4,3.36,6.35,4.14a27.42,27.42,0,0,0,6.41,1.3c0,1-2.44,3.16-5.1,3.16-3.23,0-5.9-3.27-9.07-3.27-4.71,0-4.48,1.08-4.48,1.08a32.84,32.84,0,0,1,12.59,7.26c1.82,1.82,1.61,4.7,1.89,6.08-4-4.93-7-5.77-9.77-5.77s-3.06.48-3.06,1a1.21,1.21,0,0,0,1.13,1c3.39,0,5.14,1.53,6.69,2.79,4.54,3.68,3.53,7.63,4,12.3,0.3,2.79,1.12,5.34,2.72,7-5.56,0-10.83-12.71-14.68-12.71-0.28,0-2.16.46-1.53,1,3.12,2.83,7.14,14.23-1.76,14.23a16.54,16.54,0,0,0,1-5.67c0-2.72-.62-2.95-1.14-2.95s-1.59-.28-1.59,3.86c0,5.84-3.63,4.48-3.63,14.17,0,0.91-4.19-4.82-4.19-6.24,0-1.08,1.19-1.7,1.19-3.23s-0.45-3.91-.91-3.91c-1.36,0-2.72,3.18-2.72,4-0.74.28-7.54,4.88-7.54,4.14,0-2.78,4.59-5.44,4.59-7.88,0-.45,0-0.85-0.85-0.85s-4.54,5.78-5.9,5.78c-2.29,0-2.64.81-3.22,0.89h-0.06c0-1.82,2.77-5.71,1.47-5.71S192,133,185,134.22a46.78,46.78,0,0,0,3.18-6.54c1.2-2.83,3.3-6.64,4.69-7.95,2.74-2.59,7.39-1.6,10.72-1.63,1.18,0,2,0,2.92,0,3.81,0,6.45-1,7.86-3.08,2.23-3.23.75-7.89-1-11.33-0.19-7.07-3.21-10.33-5.73-11.83-4.37-2.58-10.21-1.67-14,.39a24.33,24.33,0,0,1-10,2.73c-2.57,0-4.41-.36-5.64-1.55s-2-3.37-2.15-6.19c0.87-1.34,3.35-3.16,4.37-4,1.33-1.08-1.64-1.61-2.83-.7a5.89,5.89,0,0,1-2.68,1.28c-1.68-1.79-1.76-2.5-1.76-2.5,0.15-.53,1.83-1.75,3.05-2.64l0.32-.23a74.9,74.9,0,0,1,14.65-8.14l0.69-.28,0.48-.56a23.45,23.45,0,0,0,2.27-3.25c1.28-2.12,2.05-3.39,7.34-5.21a14.51,14.51,0,0,1,3.8-.82c0.55,0,48.65.26,55.95,0.17a22.62,22.62,0,0,0-4.57,5.26C255.67,64,253,60.76,253,63c0,1.62.42,1.86,1.33,3,1.38,1.69,2.3,3.2,3.44,3.2,0.55,0,6.28-9.24,17.31-10.05,1.44-.11,2.23,3.18,2.85,5.9l0.35,1.54c1.89,8.19.53,16.81-6.93,21-8.43,4.75-12.83-5.1-13.82-4-1.66,1.78,1,4.6,4,9.28,3.4,5.31,5.46,18.43,1.21,26.36-4.61-15.8-11.88-21.33-12.61-18.92-0.21.68,4,4.71,6.52,10.7s4.46,19.49,15.31,19.49a16.27,16.27,0,0,1-16-.5c-7.8-4.54-7.43-10.77-9.47-9.81-0.72.34,1.09,7.82,4.08,9.64,3.34,2,6.29,13.83-4.65,27.78,1.14-15.82-10.58-26.54-12-25.06-1.59,1.7,8.45,8.62,8.45,24.15,0,6.69-6.52,15.82-8.45,19-5.78-15-8.5-15.59-12.09-20.79-2.24-3.25-2-5.57-3-5.57-1.45,0-.87,2.67,1.3,7.94,1.87,4.54,7.65,8.39,9.92,18.71,1.6,7.27,4.93,17.89,13.61,17.89-7.48,6.83-18.28,4.58-23.16.5-4.16-3.48-7.57-9.54-10.4-12.94s-8.7-9.21-9.75-7.77c-1.19,1.64,1.62.45,9.75,13.55,4.41,7.09,8.89,11.82,13.69,13.14-1.38,17.21-18.37,28.81-24.49,28.81,3.26-3.26,9.71-21.83,9.71-22.39,0-.9-0.78-2.34-1.42-1.7-4,4-4.94,12.37-11.13,21.26-4.67,6.71-12.19,10.91-14,10.91,6.52-15.45,3.12-17.86,6-29.05,2.31-9.12,10.35-16.73,8.22-18.85-6.1,0-10.49,27.64-41.88,22.89,8.29-2.9,15.09-13.11,23.46-19.06,1.35-1,1-3.12.57-3.12-4.54,0-22,22.18-37.7,22.18,9.35-7.87,20.41-40.32,37.13-40.32,5,0,13.89-7.65,13.89-9.07S181,168.9,174.63,168.9C163.38,168.9,162.16,152.31,174.42,145.24Zm21.44-40a72.38,72.38,0,0,1,1.21-11.17c2.85-1,6.39-1.17,9.07.4s4.2,4.88,4.27,9.63v0.35l0.16,0.31a17.8,17.8,0,0,1,1.78,4.91A44.35,44.35,0,0,0,195.86,105.23Zm16.44,7.2a3.06,3.06,0,0,1-.4.91c-0.88,1.27-2.94,1.87-6,1.77-1.23-.9-5.19-4-7.24-7.07A43.61,43.61,0,0,1,212.3,112.43ZM201.47,115c-1.7-.12-3.57-0.17-5.7-0.23-0.06-2.46-.05-4.58,0-6.61A24.46,24.46,0,0,0,201.47,115ZM103.28,49.33c2.19-1.9,5.08-3.94,6.41-6.44,0.88,1.63.2,15.74-6.16,15.46A3.92,3.92,0,0,1,100,55.69C99.31,53.47,101,51.34,103.28,49.33ZM57.58,33.77c4.31-.54,9.19,1.11,13.73,5.93a4.54,4.54,0,0,1,.82,5.35,4.67,4.67,0,0,1-4.31,2.7c-2.19,0-3.16-2-4.8-4.89S58.22,34.77,57.58,33.77ZM37,76.75a9.14,9.14,0,0,1-2.27-1.34c0.32-1.18,5.94-4,9.83-4.29a6.58,6.58,0,0,1,6.46,3.53,4.84,4.84,0,0,1-1,5.16c-1.67,1.51-4.54,1.44-8.08-.21C41.94,79.59,38.52,77.47,37,76.75ZM67.62,129a14.25,14.25,0,0,1-8.29-2.38,13,13,0,0,0,6.34-4.7h0a5.87,5.87,0,0,1,6.13-2.34,4.05,4.05,0,0,1,3.17,3C75.28,124.46,73.24,129,67.62,129Zm75.44,59.86c0.38-.18-0.17-1.08-1.28-1.08s-5.65,1.81-11.27,3.1-8.65,1.45-12.8,4.5a30.64,30.64,0,0,1,2.1-11.06c2.3-6.75,10.18-3.8,10.18-5.73s-1.59,0-14.06,0c-2.24,0-4.32-2-6.86-4.22,6.86,0,13.83-4,13.83-4.39a0.63,0.63,0,0,0-.79-0.77c-0.34,0-14,4.22-18.91-.65,3.69-1.59,15.62-8.56,12.84-8.56-5.33,0-9.07,5.22-15.65,5.22-2.78,0-7.21,1.87-8.25,2.9a21.24,21.24,0,0,1,4.28-10c2.95-3.35,11.45-5,12.73-7,0.17-.27-0.25-1.29-0.92-1C96.71,156,88.63,147.24,88,144.91a6.49,6.49,0,0,0,3.22.91,6.75,6.75,0,0,0,3.71-1.2,6.44,6.44,0,0,0,2.75-4.92c0.38-3.73-2.55-9.55-6.64-13.21-1.19-1.07-2.58-7.14-5.07-4.88,0,0.51,1,2.81-.81,4.94-2.89,3.41-5.11,4.86-7.59,4.86a8,8,0,0,1-3.68-1c4.1-3.4,4.33-6.57,4-8.27a7,7,0,0,0-5.39-5.45,8.46,8.46,0,0,0-5.59.54c-0.48-2.26-.67-6.1,5.1-10.71,1.41-1.12,4.14-.76,5.5-0.76,2.47-3.17-2.71-1.86-5.57-4a61.42,61.42,0,0,1-6.82-6.25s3-5.78-1.87-4.31c-0.91,4.93-3.9,4.75-6.61,4.75-4,0-7.18-.9-9.4-2.69-2.52-2-3.85-5.38-4-9.92a12.68,12.68,0,0,0,3.55.59A7.49,7.49,0,0,0,52,82a7.85,7.85,0,0,0,1.86-8.38A8.2,8.2,0,0,0,48,68.35a18,18,0,0,1,4.89-3c3.52-1.49,12.73.42,14.86,11.19,0.64,0,1.45-.35,1.45-2.42,4.08,4.14,22.68,18.14,24.21,13.78C82.87,81.34,75.9,75.64,69,68.18c-0.17-.19,2.36-2.68,2.27-2.89a3,3,0,0,0-1.7-.91,9.46,9.46,0,0,0-2.41,1.47c0-.4-6.52-5.33-12.45-4.25-0.21-3.78-.72-13.32,5.66-17.19,2.13,5.15,5.65,6.33,7.2,6.33a7.64,7.64,0,0,0,7.21-4.35,7.46,7.46,0,0,0,.5-5.58c4-.33,14.36,6.11,6.17,17.13C83.33,59.4,84.6,57,85,56.39a37.24,37.24,0,0,0,6.77,15.76c3.51,4.93,4.76,7.37,7.14,7.37,1.94,0-.54-3.61-2.66-7.29-1.65-2.86-3-4.68-3.63-5.92,0.34-.23,2-1.08,1.87-1.36-0.68-1.64-2.52-1.64-3.48-2-1.82-6.41-5.08-14.17,3.68-14.17a10.69,10.69,0,0,1,4.17.83,7.49,7.49,0,0,0-1.68,7,6.75,6.75,0,0,0,6.73,4.78A7.44,7.44,0,0,0,109.23,59c3.5,6.1,2.52,8.51.77,12-0.73,1.48-3.88,1.93-4.88,1.87,0,2,3.26.48,2.52,3.23-1.23,4.59-1.52,9.86,6.59,19.43a278.81,278.81,0,0,0,27,27.93c7.45,6.86,13.88,12.78,22.48,24.49l0.52,0.71a21.69,21.69,0,0,0-1.6,3.62c-5.3-6.44-11.85-13.1-16.75-18.07-3-3.06-5.4-5.48-6.63-7a1,1,0,1,0-1.54,1.28c1.29,1.55,3.7,4,6.74,7.08,5.16,5.23,12.15,12.34,17.53,19-1.69,7.86,1.39,15,4.56,16.6-23.89,23-18.35,31.93-35.3,42.76C129.65,206.17,128.34,195.68,143.06,188.83ZM40.28,229.06a10.55,10.55,0,0,1,1.5-.1,13.85,13.85,0,0,1,2.89.32c4.17,0.91,7.13,3.3,7.81,4.63l0.6,1.16a4.51,4.51,0,0,1-.41,4.07,3.87,3.87,0,0,1-3.34,1.49C45.31,240.63,43.25,233.87,40.28,229.06Zm-10.11,45.8c-0.59,0-2.72-.15-2.72-0.15-0.64,0-1.44-.1-2.36-0.1a15.18,15.18,0,0,0-7.91,2c0.27-3.33,6.56-10.47,10.41-12.4a5.57,5.57,0,0,1,6.66,1.4c1.76,1.83,2.46,4.53,1.65,6.4S32.08,274.86,30.17,274.86ZM57.42,295.8c-0.28,5.1-5.36,4.05-7.69,10.27a14.76,14.76,0,0,1-2.51-10c0.47-4,3.13-5.65,5.43-5.74C54.54,290.3,57.66,291.36,57.42,295.8Zm45.87-.32c0.6-2.27,1.23-4.83.15-7s-1.28-6.34.84-7.6c0.91-.54,2.8-1.15,3.68-0.42C113.32,284.86,108.58,293.28,103.28,295.49ZM87.94,379.6c-0.84,1-3.18,1.36-4.69.51-4.69-2.67-.61-9.41-3.17-16.27C88.37,367.58,92.28,374.21,87.94,379.6ZM46.77,393.09c12.49-7.49,17.41-1.28,17.72.84A4.16,4.16,0,0,1,62,398.33C55.94,400.63,54.53,393.15,46.77,393.09Zm24.68,41.48a8.74,8.74,0,0,0-4.68,2.6c-0.71-12,6.56-13.88,9.16-12.93a4.5,4.5,0,0,1,3,4.44C78.76,431.38,76,433.52,71.45,434.57Zm41.74,14.62c2.11-5.42-2.08-10.72,2.07-13.26a4.16,4.16,0,0,1,4.69-.08C121.65,437.2,123.47,444.34,113.19,449.19Zm78.15-73.81-2.74.14-0.1,2.74c-0.14,3.82-1.4,7.86-2.34,11.79-2.36,9.84-6.4,23.16,4.57,31.47a24.41,24.41,0,0,1-6.61,1.06c-4.24,0-9.63-9-12-9a0.91,0.91,0,0,0-.82.71c-0.06.42,5.07,8,7.44,9.89a5.36,5.36,0,0,1-2.61.46c-9.76,0-13-7.87-14.78-7.87-0.65,0-1.36.6-1.25,0.92,0.74,2.07,3.58,5.19,5.25,6.64-1.92-.06-3.37-0.11-3.75-0.11-4.42,0-4.5-6.58-7.76-8.62-0.41-.26-1.5-0.11-1.53.34s4.14,14.57,11.26,19.8a7.89,7.89,0,0,1-.8,0c-8.19,0-17-15-17.37-15.08a1.43,1.43,0,0,0-1.12.91c-0.1.34,2.6,10.91,8,20.44-10.49-4.28-14.63-16.57-14.94-16.71a3.43,3.43,0,0,0-2.3.92,8.32,8.32,0,0,0,.65,2.44,10.41,10.41,0,0,1-2.55.26c-0.91,0-2.41-2.78-3-2.78s-2,1.21-1.7,1.62c3.07,4.39.07,13.16-4.39,13.73,0.93-4.78-1.14-7.13-2.24-8a7,7,0,0,0-8.29,0,7.42,7.42,0,0,0-2.83,4c-6-5.29-3.24-10.37-2.88-11.61s-0.91-2.35-1.46-1.29c-1.6,3.1-3,2.9-4.15,2.9a12.06,12.06,0,0,0-7.11,2.39c-0.36.25,0-4.23-1.51-4.51-0.31-.06-1.78.63-1.54,1.69,0.86,3.87-.48,5.91-1.28,6.72-2.59,2.64-4.63,4.73-7.76,4.73-1.9,0-4.15-.78-6.83-2.35,4.83-2.26,5.65-5.68,5.76-7.27a7.51,7.51,0,0,0-5-7.46c-3.22-1.18-6.71-.1-9.69,2.84-0.12-2.08,2-10.73,8.42-10.73,3.12,0,4.61,2.13,6,2.13,1,0,1.2-1.13-.64-2.69,2.25-.6,7.25-2.21,11.84-3.66,4.27-1.34,8.22-2.15,8.22-3.57s-4.07-1-9.07.34c-1.9.5-3.56,1.34-5.73,1.94a38.86,38.86,0,0,1-10.72,1.74c-1.08,0,1.25-3.8-1-3.8-1.13,0-3.4,8-8.77,8-2.51,0-10.36-1.42-10.7-13.33a10.21,10.21,0,0,0,4.72,1.27,7.89,7.89,0,0,0,3.62-.86,7.39,7.39,0,0,0,4.05-7.5c-0.22-1.5-1.33-4.92-6.63-6.43,0.43-.79,5.42-4.57,10.82-0.61,1.66,1.22,2.84,3.17,4.08,6.35,0.37,0.94,1.76-.74,1.64-2.38,1.19,1,5,2.89,18.08,3.74,0.88,0,1.64-.16,1.42-1.48-0.17-1-6.46-1.89-8.33-2.72-0.24-.11.85-1.81,0.85-2.49s-1.3-1.42-1.47-.79c-1.76,6.41-11.76-1.29-12.47-2.38-1.36-2.1,1-4.78,2.67-6.7a8,8,0,0,0,3.62,5.1,6.84,6.84,0,0,0,3.46.93,7.23,7.23,0,0,0,4.69-1.74c2.22-1.9,3.15-4.85,2.74-8.25,1.83,0.44,5.49,2,7.67,7.14,0.4,1,1.22,3.81-2.46,4.83-0.23,2.61,4.21-2.55,4.21,5.38v2.34l2.27,0.57a57,57,0,0,0,12.38,1.4c7.19,0,16.76-1.42,21.51-6.16,3.68-3.68,4.21-7.3,4.88-11.88a59.06,59.06,0,0,1,8.65-24.18c3.55-5.52,21.4-5.81,21.4-9.42,0-.36-17.08,1.84-25.09,1.84s-18.36-2.63-29.21-2.63a57.09,57.09,0,0,0-14.32,1.89,42.24,42.24,0,0,1,7.2-7.62c2.05-1.74,6.69-2,11.45-2a67.52,67.52,0,0,1,11.18,1.18A56.61,56.61,0,0,0,143,337a17.74,17.74,0,0,0,2.33-.14,0.82,0.82,0,0,0,.86-0.91,0.86,0.86,0,0,0-1.12-.65c-2.84.37-6.32-.37-10.35-1A74.94,74.94,0,0,0,117,333.16a34.54,34.54,0,0,1,24-5l3.52,0.56s-1.32-11.41,5.88-15.57c-0.79,1.73,2.06,14,5.17,10.63-5.32-12.26.8-12.79,3.22-12.82a6.86,6.86,0,0,0-.78,5.62c1.55,5.41,9.26,9.89,15.11,9.89a10.66,10.66,0,0,0,1.92-.17,212,212,0,0,1,37.88-3.91c8.94,0,17,1.37,24.72,2.52-7.51,21.54,7.5,25.09,7.5,25.09s-1.35,4.22-2,6.55c-3,2.44-15.53,9.89-35.33,9.89a1.1,1.1,0,1,0,0,2.2c18.61,0,29-5,34.19-8-1.17,3.86-1.7,5.9-1.7,5.9C222.18,372.86,196.11,375.13,191.34,375.38Zm25.88,117.93c-1.69-1.69-4.58-3.56-9.53-3.09,6.94-6.76,15.77-6.57,16.54-3C224.83,490.09,219.56,495.65,217.22,493.31ZM227.41,529a49.79,49.79,0,0,0-6.85,5.82,18.73,18.73,0,0,1,.22-12.11,6.88,6.88,0,0,1,7.05-4.16,4.77,4.77,0,0,1,3.95,3.61C232.23,524.43,230.28,526.72,227.41,529ZM263.05,534c-1.26-.8-3.69-4.26-3.9-7.57-0.22-3.55.34-6.35,2.51-7.54,1.72-.94,4.58-0.51,5.32.54C271.09,525.41,265.25,528.25,263.05,534ZM304.39,488c1.09,2.56,1.95,5.49-.61,9.23-2.43-5.15-7.4-6.26-8.42-8.69a3.28,3.28,0,0,1,.83-3.84C297.8,483.38,303,484.59,304.39,488Zm71.1-133.26c-2.95,9.47-7.75,12.4-6.62,13.53s3.64-4.07,17.39-9.36c5.33-2.05,13-5,19.26-9.29-2.54,7.92-8.87,18.06-19.08,20.33,0,0-15.72,3.07-15.72,5,0,0.74,7-.36,13.68,1.06,10.47,2.25,17.51,6.8,30.11,7-5.29,4.19-15.59,7.89-26.93,7.89-19.83,0-25-15-26.36-13.65s6.14,11.34,7.48,15.41,5.63,21-8.9,36.16c2.28-31.77-17.09-47.19-35.86-62.14-9.56-7.61-18.61-14.83-24.16-23.88-3.56-5.81-11.62-34-14.26-32.73s2.74,3.54,8.75,34.85c1.55,8.09-.31,44.64-1.47,47.37l-1.13,2.45,2.31,1.39a65.09,65.09,0,0,1,14.72,12.34c5.42,5.71,10.1,10.64,20.65,10.64a41.88,41.88,0,0,0,4.83-.3c-3.58,10.74-17.54,7.33-19.81,8.75-0.43.27-1.25,0.81-.57,1.28,3.61,2.48,14.39-.28,14.39-0.28-3,7.65-17.79,9.21-20.13,10.06-0.78.28,0.48,1.22,1.63,1.42,2.13,0.35,1.42-.5,5.17-0.42s8.36,0.64,14.5.57c-1.16,1.59-6.92,6.3-21.52,5.88-0.92,0-1.72.91-.71,1.28,3,1.06,10.84.64,13.61,1.42-1.35,2.27-4.47,6.17-18.32,6.23a0.8,0.8,0,1,0-.12,1.59c8.38-.09,9.51,3.53,12.56,4.73s3.93-.28,4.71-0.06c-3.51,3-3.19,4.31-22.07,4.14a0.86,0.86,0,0,0-1,.91c0.94,3.8,13.41,2.15,13.39,5.22-7.16,2.78-6,2.95-14.56,2.95-1.25,0-1.36,1.81-1.36,1.81s-0.25,1.76,2.83,1.76c2.66,0,4.49,3,6.76,4.28,0,0,0,0,0,0-5.08-2.57-8.13-.92-9.28,0a6.29,6.29,0,0,0-1.73,7.28c0.72,1.83,2.61,3,4.43,4.16l0.94,0.6c-0.1.06-.2,0.1-0.3,0.17a10,10,0,0,1-5,1c-2.13,0-3.53-.1-9.76-4.75-0.9-.67-1.84,1.35-1.49,2.34s0.79,2.59.57,2.89-3,4.07-6.88,4.35c-0.67,0-.7,2.91.28,2.75a6.29,6.29,0,0,1,4.81,1.08c0.64,0.59,2.57,4.16,2,8.75-0.59,5.23-4.39,9-10.94,10.93a7.55,7.55,0,0,0-2.35-6.63,7.75,7.75,0,0,0-8.75-.93c-1.31.72-4,2.75-4.22,7.4-1.69-1.31-7.87-12.76,3.1-16.91,0.71-.27.58-0.78-0.14-0.85a13.07,13.07,0,0,1-2.66.14c2-6.18,2.22-14.73,2.24-15.82,0-1.76-1.1-3.43-1.9-3.06s-1.49,7.57-2.64,12.64c-1.53,6.78-4.82,10.72-5.47,14.34-0.09.48-2-1.86-2.47-1.57s-1.71,1.38-1,2c8.84,7,1.36,13.2-4.44,15.1-3.62,1.19-7,1.13-9.11-.09,3.59-3.31,3.48-6.61,3.2-8a7.78,7.78,0,0,0-6.37-6,9.21,9.21,0,0,0-8.33,3.09c-2.61-3.67-1-11.15,12.3-16.25,0,0,3.21,1.63,3.51,1.13,1.53-2.49-1.9-2-1.53-2.38,4-4.08,9.49-11.85,10.44-15.18,0.37-1.29-.75-2.34-1.71-1.32s-6.58,9.24-7.65,9.41c-0.78.12-1.08-1.25-2-.28s-0.73,3.31-1.47,3.91c-12,9.69-12.59,1.62-12-1a7.5,7.5,0,0,0,3.2-1.31c2.87-2,4.58-5.59,4-8.6a6.3,6.3,0,0,0-3.27-4.44c1.31-1.75,3.9-2.65,7.74-2.65,2.82,0,4.52,2.37,5.42,2.82,3.06,0.23.25-2.36,0.63-2.31a21.76,21.76,0,0,0,2.55.26c8,0,28.65-28.14,28.65-36.31,0-6-4.19-10.16-7.52-13.66-9.73-10.22-3.21-16.39-3.42-25.39,0-1.1-1.68-.91-2.34.07-1.49,2.2-2,13.06-4.89,19A98.53,98.53,0,0,1,242.85,438c-4.83,7-8.74,12.69-8.77,24-0.38-.48-0.77-1-1.19-1.66a38.26,38.26,0,0,1-4.12-9.44c-1.28-5.19,8.79-22.2,11.36-26.49a0.59,0.59,0,1,0-1-.61c-2.46,4.1-8.89,14.58-11.45,21.66-0.57-6,0-12.84,3.76-21.51,2.51-5.74,4-5.56,6.36-8.71a0.54,0.54,0,0,0-.82-0.71c-0.54.45-3.83,5.29-10.38,5.29-2.66,0-7.83-.5-11-3.82a11.44,11.44,0,0,1-2.84-6.34,14,14,0,0,0,8.1,2.89,11.27,11.27,0,0,0,2.21-.22C234.73,410,239,395.81,243.66,370,245.8,358.16,257,329.76,257,314c0-7.23-.71-18.35-3.4-18.35-1.42,0,0,3.33-.57,20.2,0,7.31-5.61,25.34-6.45,30-1.28-.17-6.45-2-6.45-10.29,0-7.16,2.41-7.05,2.41-11.12,0-9.28-12.4-20.34-16.69-23,1.12,0,10.79.2,18.31,10.49,1.8,2.46,3.63.28,2.07-1.66-2.76-3.43-5.54-7.39-10.2-11.52-17.51-15.52-45.75-33.57-50.91-38,0,0,4.71-7.33,7.72-13.18a40.42,40.42,0,0,0,4.26,7.88c2.35,3.18,5.2,5.49,5.81,4.79,0.89-1-8-8.67-10.12-19.9-0.69.36-2.32,1.79-1,4.85a53.94,53.94,0,0,1-12.38,16.35c0.26-.54,5.39-18.4.34-15-0.73,4.35-2.49,10.43-3.37,14.15-1.18,5-3.26,9.24-1.33,15.94-2.3-1.59-4.22-4.31-6.15-8.07s4.23-17.23-1.84-15.7c0.68,3.68-.9,12-3.63,14.74a53.4,53.4,0,0,1-6.24,5.11c4.76-12.65,4.31-16.34-.28-16.51,2.27,3.91-1.19,11.11-4,19.77a43.68,43.68,0,0,0-1.4,11c-6-7.79-2.24-22.14-4.79-29.85-4.76,1.13-1.59,10-9,17.72a7.26,7.26,0,0,0-.57-2.62,6.27,6.27,0,0,0-6.1-3.68,12.31,12.31,0,0,0-2.68.32c-10.06,2.56-14.45-1.89-15.22,2.22,1.47,0.77,3.67,1.64,4.06,4.56,0.59,4.37,0,7.73-4,9.86-0.12-4.93-2.55-7-3.78-7.67a6.14,6.14,0,0,0-7.14.75c-2,1.76-2.88,4.5-2.42,7.65-2.23-.54-4.69-2.48-6.7-5.39a9.32,9.32,0,0,1,.23-6.73c-4.85,0-4,5.74-4,5.74A26.44,26.44,0,0,1,80,282.12c-2.94.09-2.5-7.57-7-1.68,7.65,5.9,1,14.32-3.7,17.89-3.11,2.37-10.26,1.79-10.33,1.79,1.73-2.95,2.06-5.91.88-8.44a7.61,7.61,0,0,0-7.28-4.32A8.63,8.63,0,0,0,45.46,292a9.85,9.85,0,0,1-1.26-5.75c0.62-5.71,7.91-11.15,10.55-11.15,0.54,0,3.26.62,3.94,0.62s1.33,0,1.33-.62-2.58-1.35-3.22-1.35a44.88,44.88,0,0,0,8.65-7.27c3.91-4,7.58-8.39,7.58-9,0-.28.35-1.09-1.09-1.09s-6.29,5.54-11.86,10a61,61,0,0,1-9.95,6.49c-0.68,0-1.22-1.88-2-1.88a2.09,2.09,0,0,0-1.6,1.88c0,1.28,1.2,1,1.2,1.7-1.37.78-5.72,5.18-6.41,9.83-0.38-.08-0.8-0.16-1.29-0.25-4.09-.73-8.47-1.76-9-6.27,5.06-.27,7-3,7.68-4.64,1.27-3,.35-7-2.25-9.65a8.86,8.86,0,0,0-7.31-2.79c1.58-3.59,5.3-5.73,9.61-5.73,7.16,0,5.74,4.39,8.29,4.39,1.06,0,0-2.41.85-2.41,1.49,0,.57.35,2.66,0.35,3.56,0,6.59-1.83,10-3.56s6.62-2.3,6.62-3.93c0-.71-0.14-0.86-0.85-0.86-2.85,0-10.35,3.47-11.27,3.47-0.48,0,.37-2-0.85-2-1.77,0-1.84,3-4.25,3s-6.66-2.2-9.92-2.2c-3.47,0-5.27-1.36-4.42-5.35a11.29,11.29,0,0,1,6.25-7.52s2.71,5.27,7.93,5.27a6.64,6.64,0,0,0,5.36-2.76,7.09,7.09,0,0,0,1.22-5.11,8.73,8.73,0,0,1,6.06,3.89c0.4,0.51.81,1,1.27,1.55,0,1.27,0,2.82.72,2.82a1.11,1.11,0,0,0,1.29-1c2.05,1.46,5.1,2.56,10.45,2.56,10.12,0,24-8.73,38.64-18,5.05-3.18,10.27-6.47,15.29-9.36l2-1.13c13.66-.19,14-2.53,16.23-2.53a5.74,5.74,0,0,1,1.07.11l-9.4,5c-9.3,4.91-18.09,9.54-21,11.45a1,1,0,1,0,1.1,1.67c2.82-1.85,11.57-6.46,20.83-11.35,3.74-2,7.59-4,11.26-6a33.1,33.1,0,0,0,10,1.31c10.35,0,21.26-5.81,21.26-7.37,0.78,6.45-3.61,31.18-9.21,31.18-1.13,0-2,4.11,1.42,4.11,1.7,0,15.87-5.67,19.42-10.77,4.25,0.14,18.14-2.91,27.36-17.22,0,20.62,20.27,40.18,24.94,35.51-7.86-4.58-2.3-15.62,1-29.48,1.11,2.92,8.45,8.4,13.52,16.7,8.13,13.32,15.57,29.9,16.81,28.66s-6.77-19.59-16.37-33.94c0.7,0,6.74,2.41,9.29,6.57,5.41,8.83,9.26,20.4,15.27,33.9,8.47,19,19.5,41.33,33,61.34,9.51,14.12,17.81,20,22,21.44a8.38,8.38,0,0,0,2.64.43,10.5,10.5,0,0,0,7.07-3,18.65,18.65,0,0,0,5.32-16.37h21.19v1.24A54.17,54.17,0,0,1,375.49,354.71Zm5.24-19.62H354.49c-6.41-4.14-13.08-7.12-15.52-17a176.6,176.6,0,0,0,23.46,1.63c13.22,0,27.32-1,33.27-2.69C393.17,324.68,383.94,334.51,380.74,335.09Zm55.9-121.55c-0.63,3.13-4.93,12.05-10.57,16.67-7.32,6-11.37,5-17.21,12.42-0.35.44,0.42,0.94,0.79,0.68,2.89-2,4.48-3.09,9-5.67,2.85-1.65,8.65-4.46,10.86-6.24a18.61,18.61,0,0,0,5.81-7.42c0.34,6.69,0,9.07-3.69,15.93-1.24,2.3-7.2,8.62-10.43,11-7.11,5.24-12.63,8-12.63,9.92a0.81,0.81,0,0,0,1,.82c0.87,0,2-2,3.73-3.26,0.82-.57,4.47-2.23,8.11-4.59a96.6,96.6,0,0,0,7.88-5.84c0.45,2.95-1.7,16.44-6.07,20.3-10.86,9.59-20.24,11.56-20.24,15.19a0.8,0.8,0,0,0,1.19.68c6-5,17.69-10.32,17.69-10.32-0.68,4.71-2.95,11.23-7.94,15.48-4.53,3.86-9.06,5-12.3,6.52-2,1-6.35,4.48-6.35,5.5a1.12,1.12,0,0,0,1.9.33c3.8-4.25,8.19-2.59,14.32-7.19-1.93,6.41-6,14.4-14.85,19.11-2.54,1.34-15.71,2.7-29,2.89-12.57.19-25.21-.73-28.91-1.63-10.28-2.51-14.74-9.07-16.88-15.61,8.94,2.22,10.07,5.41,11,5.41s1.85-.46,1.42-1.35c-3.26-6.66-11.34-5.32-17.86-11.05-1.62-1.43-5.24-7.23-5.81-15.71,7.54,3.44,10.21,3,14.74,8.41,0.73,0.87,1.7-.78,1.42-1.27-5.7-10-17.5-7.14-21.68-16.73-1.85-4.25-2.48-7.09-1.56-14.81,14.6,9.42,11.41,5.39,15.87,10.91,0.54,0.66,1.63.19,1.42-.92-1.56-8.08-15.24-8-23.17-21.47-0.89-1.51-.57-5.6.43-9,2.06,2.34,12.72,6.9,15.4,9.12a1,1,0,0,0,1.54-1c-1.49-5.1-16-7.58-19-15.8-1.78-4.91-1.77-7.23-.42-13.32,1.2,2.27,17.29,10.35,18.07,10.35,0.5,0,2-1.08,1.14-1.77-10.06-7.87-17.86-6.59-20.2-17.15-0.73-3.33-2-6.19.95-14.23,6.28,6.1,20.74,11.49,22.15,17.27,0.18,0.74,1.42.06,1.56-.42s-0.31-3.89-.12-7.94c0.54-11.36,12.38-35,27.05-53.63,3.64-4.56,12.51-16,19-22,10.38-9.68,20-19.14,22.53-30.69,1.73-8-.54-15.86-5.65-19.46a11.46,11.46,0,0,0-9.5-1.69,12.8,12.8,0,0,1,5.46-6.4,12.28,12.28,0,0,1,6.17-1.59c6.41,0,10.06,3.24,11.27,7,1.42,4.36-.4,8.9,1.32,10.62,0.26,0.26.8-.29,0.89-0.75,1.84-8.73,2-9.46,3.2-14.29s3.86-9.4,6.68-14.25c3.36-5.78,6.82-11.73,8.16-18.72,2.94,3.06,4.06,6.63,4.06,14.09,0,14.6-16.83,31.32-12.89,31.32,0.31,0,13.75-14.54,14.88-24.59,10.15,20.82-6,32.33-14,44-0.84,1.22-.85,2.13.07,2.13,2,0,15.16-15.66,16.51-18.78,0,4.93.87,11.31-3.12,18.13-3.12,5.33-12.47,10.94-17.52,15-0.4.32-.11,1.36,1.3,1.36,2.32,0,15.36-9.41,16-10.54,0,2.18-.34,10.37-9.67,16.41a4,4,0,0,1-1.67.6c-1.63,0-3.26-1.36-6.35-1.36-2,0-7.3,1.1-6.18,2.91,5.24-1.77,12.39,1.59,13.78,3s3.91,4.81,3.4,9c-0.44,3.64-2.8,7.11-7,10.34-0.71-3.61-2.05-9-7.15-11.69-8.81-4.62-18.52-2.78-30.07,8.13-11.22,10.6-28.08,27.65-35.5,57-7.74,30.64,1.55,57.37,18,87.91-1.54,6.84-1.65,13.09,1.82,17.68a1.5,1.5,0,0,0,2.39-1.81c-3-3.91-2.64-9.73-1-16.23l0,0,0,0c1.06-4.33,2.68-9,4.29-13.54,2.16-6.16,4.23-12,4.9-17.1,7.54,8.49,2.67,20.71,1.15,25.59a47,47,0,0,0-2.71,16,1,1,0,0,0,2,0,45.35,45.35,0,0,1,2.62-15.42c1.32-4.21,3.38-7.92,3.81-15.93,3.12,7.54,5.67,19,2,34.46q-0.62,2-1.26,4.09a1.5,1.5,0,0,0,2.85.94q0.7-2,1.24-4c11-36.22,15.47-66.58,13.57-92.67s-9-43.43-23.83-58.07a113.32,113.32,0,0,1,13.72-12c4.76,3.83,29.89,40.34,29.89,58.58a35.45,35.45,0,0,1-.76,8,1,1,0,0,0,1.56.35c2.55-3.76,4.6-5.65,9.67-9.33s11.74-8.06,15.79-12.41c0.18,3.18,2.67,9.86-4,19-2.59,3.55-4,6-11.68,10.77-2.34,1.46-5.1,4.14-7.88,6.38-0.36.29,0.31,1.16,0.57,1.13,1-.09,10.16-6.84,14.29-9.53,3.35-2.18,8.16-8.08,9.17-9.75C437.3,202.69,438.17,205.95,436.64,213.54ZM362,251c0,5.18-2.41,12-5,19.3-1.25,3.56-2.51,7.15-3.52,10.65-15.15-28.73-23.46-54.12-16.21-82.87,5.09-20.15,14.8-34.27,26.84-46.77,14.22,14.09,21.1,30.95,22.94,56.15,1.56,21.38-1.22,45.7-8.47,73.89-0.8-15.36-7.61-25.75-13.9-31.7-0.93-.88-1.81-1.73-2.33-1.47S362,250.39,362,251Z"/><path d="M283.06,319.84c-2.69,0,1.46,2.45,3.61,25.58,1.42,15.24.35,28.42,1.77,28.42s1.84-3.26,1.84-18.57S286.26,319.84,283.06,319.84Z"/><path d="M285.35,304.88a1.35,1.35,0,0,0-.94,1c0,0.38-1,.33-1,1.32,0,0.48.37,0.74,0.37,1.13a0.72,0.72,0,0,0,.85.65c0.51,0,1.76-1.5,1.76-2.92S285.66,304.88,285.35,304.88Z"/><path d="M282.72,295.29a0.92,0.92,0,0,0-1.13-.78,1.86,1.86,0,0,0-1.42,1,1.25,1.25,0,0,0,.91,1.28A1.7,1.7,0,0,0,282.72,295.29Z"/><path d="M252.44,292.74a1.2,1.2,0,0,0-1.3,1.08A1,1,0,0,0,252.3,295a1.43,1.43,0,0,0,1.45-1.47C253.75,293,253.29,292.74,252.44,292.74Z"/><path d="M252,290c0-1.16-.57-1.25-1.08-1.25s-2.1,1.08-2.1,1.87c0,0.51.17,1.81,1.08,1.81A2.65,2.65,0,0,0,252,290Z"/><path d="M248,285.83a1.62,1.62,0,0,0-1.42,1.13c0,0.62.11,1.76,0.68,1.76a1.82,1.82,0,0,0,1.64-1.76C248.87,285.83,248.45,285.83,248,285.83Z"/><path d="M245.41,283.42c-1.08,0-1.3.48-1.3,1a1.21,1.21,0,0,0,1.08,1.36,1.5,1.5,0,0,0,1.53-1.36C246.72,283.73,246.49,283.42,245.41,283.42Z"/><path d="M283.54,298.61a1.26,1.26,0,0,0-1.32-1.08,1.35,1.35,0,0,0-1.15,1.08c0,0.45.17,1.73,1.15,1.73A1.58,1.58,0,0,0,283.54,298.61Z"/><path d="M169.5,226.41c-0.57,0-2.15.06-2.15,2.66s0.51,3.74.51,5.22S167,238,164.57,238s-2.15-1.47-5.39-1.47c-5.67,0-5,2.75-7.37,2.75-0.91,0-1.93.14-1.93,0.71s0.68,0.89,1.64.89c3.57,0,1.93-.89,3.86-0.89,2.44,0,1.42-.71,3.29-0.71s1.13,0.8,5.22.8,7-1.11,7-4.17-0.38-4.65-.38-6.41c0-.91.38-1.76,0.38-2.49S170.07,226.41,169.5,226.41Z"/><path d="M282.66,302.72a1.83,1.83,0,0,0-.44.52c0,0.43.24,1.21,1.54,1.21a1.07,1.07,0,0,0,1.09-1.42c0-.34-0.38-0.91-0.38-1.14a0.52,0.52,0,0,0-.51-0.57,1.67,1.67,0,0,0-1,.57A2.71,2.71,0,0,0,282.66,302.72Z"/></svg>