<svg id="zlatá" xmlns="http://www.w3.org/2000/svg" viewBox="0 0 454.68 604.39"><defs><style>.cls-1{fill:#fdc139;}</style></defs><title>zlata</title><path id="zlata" class="cls-1" d="M259.15,526.47c0.21,3.31,2.65,6.77,3.9,7.57,2.2-5.79,8-8.62,3.92-14.56-0.73-1.06-3.6-1.48-5.32-.54-2.17,1.18-2.73,4-2.51,7.54m-38.37-3.8a18.73,18.73,0,0,0-.22,12.11,49.79,49.79,0,0,1,6.85-5.82c2.88-2.23,4.82-4.52,4.37-6.83a4.77,4.77,0,0,0-3.95-3.61,6.88,6.88,0,0,0-7.05,4.15m-13.09-32.45c5-.47,7.85,1.4,9.53,3.09,2.34,2.34,7.61-3.22,7-6-0.78-3.62-9.6-3.81-16.54,3m4.61-377.79A43.61,43.61,0,0,0,198.68,108c2,3.11,6,6.16,7.24,7.07,3,0.1,5.1-.5,6-1.77a3.06,3.06,0,0,0,.4-0.91M46.77,393.09c7.75,0.05,9.17,7.54,15.27,5.24a4.16,4.16,0,0,0,2.45-4.39c-0.32-2.13-5.23-8.33-17.72-.85M34.25,265.6a5.57,5.57,0,0,0-6.66-1.4c-3.85,1.93-10.14,9.07-10.41,12.4a15.18,15.18,0,0,1,7.91-2c0.91,0,1.71.06,2.36,0.1,0,0,2.13.15,2.72,0.15,1.9,0,4.91-1,5.72-2.87s0.11-4.57-1.65-6.4M50,79.81a4.84,4.84,0,0,0,1-5.16,6.58,6.58,0,0,0-6.46-3.53c-3.89.27-9.52,3.11-9.83,4.29A9.14,9.14,0,0,0,37,76.75c1.49,0.72,4.91,2.84,4.91,2.84,3.54,1.65,6.4,1.73,8.08.21m2.66,159.33a4.51,4.51,0,0,0,.41-4.07l-0.6-1.16c-0.68-1.33-3.64-3.71-7.81-4.63a13.85,13.85,0,0,0-2.89-.32,10.55,10.55,0,0,0-1.5.1c3,4.8,5,11.56,9.06,11.56a3.87,3.87,0,0,0,3.34-1.49m4.74,56.67c0.25-4.45-2.88-5.5-4.76-5.44-2.3.09-5,1.7-5.43,5.74a14.76,14.76,0,0,0,2.51,10c2.33-6.22,7.41-5.17,7.69-10.27M72.14,45.05a4.54,4.54,0,0,0-.82-5.35c-4.54-4.83-9.41-6.47-13.73-5.93,0.64,1,3.8,6.21,5.45,9.09s2.61,4.89,4.8,4.89a4.67,4.67,0,0,0,4.31-2.7M75,122.59a4.05,4.05,0,0,0-3.17-3,5.87,5.87,0,0,0-6.12,2.34h0a13,13,0,0,1-6.34,4.7A14.25,14.25,0,0,0,67.62,129c5.62,0,7.66-4.5,7.35-6.37m4,306.08a4.5,4.5,0,0,0-3-4.44c-2.6-1-9.87.95-9.16,12.93a8.74,8.74,0,0,1,4.68-2.6c4.58-1,7.31-3.19,7.49-5.9m9-49.07c4.34-5.39.43-12-7.86-15.77,2.57,6.86-1.51,13.6,3.17,16.27,1.51,0.86,3.85.54,4.69-.51M109.69,42.89c-1.33,2.51-4.22,4.55-6.41,6.44s-4,4.14-3.24,6.36a3.92,3.92,0,0,0,3.49,2.66c6.36,0.28,7-13.84,6.16-15.46m-1.74,237.55c-0.88-.73-2.77-0.13-3.68.42-2.11,1.26-1.92,5.4-.83,7.6s0.46,4.76-.15,7c5.3-2.2,10-10.62,4.67-15m12,155.41a4.16,4.16,0,0,0-4.69.08c-4.15,2.54,0,7.84-2.07,13.26,10.28-4.85,8.46-12,6.76-13.34m73.32-321.12c-0.06-2.41-.06-4.39,0-6.39l-2,.32a59.42,59.42,0,0,1-9,.63c-6.61,0-18.51-1-23.91-7.94a12.9,12.9,0,0,1-2.71-8.84,11.79,11.79,0,0,0-3.67,9.74,14.15,14.15,0,0,0,10.79,12.49,49.94,49.94,0,0,0,10.42.93c3.62,0,7.18-.25,9.54-0.44l2.11-.17c2.08-.18,3.4-0.28,4.34-0.28s3.25-.08,4.06,0M261.64,48.2c2-12.95,6.28-23.79,8-27.08-3.28.83-7,4.53-8.65,6.21l-1.1,1.1h-1.24c-5.95,0-7.66,4-7.66,7.43,0,5.76,8.79,4.88,6,7.65-2.35,2.35-9-4.08-9.64-4.08s-6,4.82-8.33,2.49c-2.49-2.49,7.34-1.64,7.34-9.3,0-1.32-.65-4.9-4-5.36s-4.83-3.72-6-6.32c-1.77-4-2.76-5.29-5.14-5.29-3,0-4.7,3.33-6.18,6.26-1.2,2.37-2.23,4.9-4.52,5.22s-2.77.39-3.18,0.71a7.23,7.23,0,0,0-2,5.4c0,6.8,9.21,6.52,6.45,9.28-2.45,2.45-8.33-3.76-8.86-3.76s-6.14,6.26-8.29,4.11c-2.41-2.41,6.66-4.31,6.66-9.57a8.8,8.8,0,0,0-.72-2.61,3.83,3.83,0,0,1-2.66-2,14,14,0,0,0-2.17-.13c-2.05,0-3.13-1.5-4-2.7a8.12,8.12,0,0,0-2.73-2.69,14.19,14.19,0,0,0-4.78-1.57c6.8,11.14,8.58,28,9.2,34.3,4.13,0.27,48.89,1.22,57.31.3,0.12-1.9.29-3.78,0.52-5.62-4.72,0-26-.35-33.52-0.93-3.42-.26-2.34-2.51,0-2.41,6.29,0.28,19.55.63,33.86,0.91M304.39,488c-1.44-3.38-6.59-4.6-8.2-3.3a3.28,3.28,0,0,0-.83,3.84c1,2.43,6,3.53,8.42,8.69,2.56-3.74,1.7-6.67.61-9.23"/></svg>