<svg id="Vrstva_6" data-name="Vrstva 6" xmlns="http://www.w3.org/2000/svg" xmlns:xlink="http://www.w3.org/1999/xlink" viewBox="0 0 454.68 604.39"><defs><style>.cls-1{clip-path:url(#clip-path);}.cls-2{fill:#d5c7cc;}</style><clipPath id="clip-path"/></defs><title>bila-vnitrek</title><g class="cls-1"><path id="stribrna" class="cls-2" d="M167.06,395.75c0,1.3,1.47,3.29,1.47,5.33s-2.78,6.52-6.86,6.52c-4.54,0-2.83-2-7.14-2-2.1,0-3.35,1.22-4.25,1.22s-1.59,0-1.59-.71c0-2,5.16-3.54,8.28-3.54,2.83,0,1.08,1.9,5.27,1.9,0.79,0,2.72.28,2.72-2.21,0-2.66-1.25-4.32-1.25-6,0-2.4,1.64-3.67,2.61-3.67s1.65,0.31,1.65.76-0.91,1.14-.91,2.44M147.82,406c0,3.8-1.33,3.69-1.79,3.69a0.76,0.76,0,0,1-.79-0.85c0-5.38,1.29-5,1.7-5s0.88,0.06.88,2.15m-3.49.17c0,0.51-.51,4.55-2.66,4.55-0.91,0-.79-0.7-0.79-1.55,0-3.46,1.19-3.63,2.42-3.63,0.62,0,1,.23,1,0.62m-4.08,1.87c0,0.4-.28,2.89-1.59,2.89s-1.25-1-1.25-1.66c0-1.29,1.7-1.85,2.1-1.85a0.66,0.66,0,0,1,.74.62m-3.57,1.81c0,0.74-2.27,2.32-2.84,2.32s-0.91-.11-0.91-0.62c0-1.76,2.32-2.27,2.67-2.27s1.08-.17,1.08.57m101-84.93c-7.68-1.15-15.77-2.52-24.72-2.52A212,212,0,0,0,175,326.34a10.66,10.66,0,0,1-1.92.17c-5.85,0-13.56-4.47-15.11-9.89a6.86,6.86,0,0,1,.78-5.62c-2.42,0-8.53.56-3.22,12.82-3.12,3.33-6-8.9-5.17-10.63-7.2,4.17-5.88,15.57-5.88,15.57l-3.52-.56a34.54,34.54,0,0,0-24,5,75,75,0,0,1,17.67,1.14c4,0.62,7.51,1.36,10.35,1a0.86,0.86,0,0,1,1.12.65,0.82,0.82,0,0,1-.86.91A17.74,17.74,0,0,1,143,337a56.61,56.61,0,0,1-8.59-.72,67.52,67.52,0,0,0-11.18-1.18c-4.76,0-9.4.3-11.45,2a42.24,42.24,0,0,0-7.2,7.62,57.09,57.09,0,0,1,14.32-1.89c10.86,0,21.2,2.63,29.21,2.63s25.09-2.2,25.09-1.84c0,3.61-17.85,3.91-21.4,9.42a59.06,59.06,0,0,0-8.65,24.18c-0.67,4.58-1.2,8.2-4.88,11.88-4.74,4.74-14.31,6.16-21.51,6.16a57,57,0,0,1-12.38-1.4l-2.27-.57V391c0-7.93-4.43-2.78-4.21-5.38,3.69-1,2.87-3.88,2.46-4.83-2.18-5.18-5.84-6.7-7.67-7.14,0.41,3.41-.52,6.35-2.74,8.25a7.23,7.23,0,0,1-4.69,1.74,6.84,6.84,0,0,1-3.46-.93,8,8,0,0,1-3.62-5.1c-1.66,1.92-4,4.6-2.67,6.7,0.71,1.09,10.71,8.79,12.47,2.38,0.17-.62,1.47.11,1.47,0.79s-1.09,2.39-.85,2.49c1.88,0.83,8.16,1.7,8.33,2.72,0.22,1.32-.54,1.5-1.42,1.48-13.1-.85-16.9-2.72-18.08-3.74,0.11,1.64-1.27,3.32-1.64,2.38-1.25-3.17-2.42-5.13-4.08-6.35-5.4-4-10.39-.18-10.82.61,5.3,1.51,6.41,4.93,6.63,6.43a7.39,7.39,0,0,1-4.05,7.5,7.89,7.89,0,0,1-3.62.87,10.21,10.21,0,0,1-4.72-1.27c0.34,11.92,8.19,13.33,10.7,13.33,5.37,0,7.64-8,8.77-8,2.27,0-.06,3.8,1,3.8A38.86,38.86,0,0,0,86.27,408c2.17-.6,3.83-1.44,5.73-1.94,5-1.32,9.07-1.64,9.07-.34s-3.95,2.23-8.22,3.57c-4.58,1.44-9.58,3.05-11.83,3.66,1.84,1.56,1.63,2.69.64,2.69-1.35,0-2.83-2.13-6-2.13-6.45,0-8.54,8.65-8.42,10.72,3-2.94,6.46-4,9.69-2.84a7.51,7.51,0,0,1,5,7.46c-0.11,1.59-.93,5-5.76,7.27,2.68,1.57,4.93,2.35,6.83,2.35,3.12,0,5.17-2.09,7.76-4.73,0.79-.81,2.14-2.85,1.28-6.72-0.24-1.05,1.24-1.75,1.54-1.69,1.47,0.28,1.15,4.76,1.51,4.51a12.06,12.06,0,0,1,7.11-2.39c1.13,0,2.55.21,4.15-2.9,0.55-1.07,1.86-.07,1.46,1.29s-3.13,6.32,2.88,11.61a7.42,7.42,0,0,1,2.83-4,7,7,0,0,1,8.29,0c1.1,0.88,3.17,3.23,2.24,8,4.46-.57,7.47-9.34,4.39-13.73-0.28-.4,1.16-1.62,1.7-1.62s2,2.78,3,2.78a10.41,10.41,0,0,0,2.55-.26,8.32,8.32,0,0,1-.65-2.44,3.43,3.43,0,0,1,2.3-.92c0.31,0.14,4.45,12.43,14.94,16.71-5.41-9.53-8.11-20.1-8-20.44a1.43,1.43,0,0,1,1.12-.91c0.4,0.09,9.18,15.08,17.38,15.08a7.9,7.9,0,0,0,.8,0c-7.12-5.23-11.28-19.35-11.26-19.8s1.12-.6,1.53-0.34c3.26,2,3.35,8.63,7.76,8.63,0.38,0,1.83,0,3.75.11-1.66-1.45-4.51-4.57-5.25-6.64-0.12-.32.6-0.92,1.25-0.92,1.79,0,5,7.87,14.78,7.87a5.36,5.36,0,0,0,2.61-.46c-2.37-1.9-7.49-9.47-7.44-9.89a0.91,0.91,0,0,1,.82-0.71c2.41,0,7.8,9,12,9a24.42,24.42,0,0,0,6.61-1.06c-11-8.3-6.93-21.62-4.57-31.47,0.94-3.92,2.2-8,2.34-11.79l0.1-2.74,2.74-.14c4.76-.25,30.84-2.52,48.91-8.77,0,0,.53-2,1.7-5.9-5.21,2.95-15.59,8-34.19,8a1.1,1.1,0,1,1,0-2.2c19.79,0,32.34-7.46,35.33-9.89,0.69-2.33,2-6.55,2-6.55s-15-3.54-7.5-25.09m-85.2-148.59A1.55,1.55,0,0,1,151,178c-1.19,0-1.39-.68-2.27-0.68s-2.1.88-4.17,0.88c-5.76,0-6.55-5.76-6.55-7.74s0.54-2.83.54-4.73-0.93-2.44-.93-3.06a1.46,1.46,0,0,1,1.45-1.31c2.38,0,2.55,2.38,2.55,4.23s-0.45,2.66-.45,4c0,3.23,2,5.9,4.2,5.9s1.87-1.11,3.88-1.11,3.23,1.47,3.23,2m-14.09-18.76c0,0.57-1.27.79-1.27,1.83,0,0.45.17,0.44,0.17,0.84a1,1,0,0,1-1.13,1,1.31,1.31,0,0,1-1.47-1.59c0-2.69,1.86-3,2.61-3a0.93,0.93,0,0,1,1.1.94m-3.49-3.69c0,1-.57.74-0.57,2.15a1.41,1.41,0,0,1-1.36,1.36c-0.91,0-1.19-1.25-1.19-2.21,0-1.42.79-2,1.56-2s1.56,0.17,1.56.68m-3.91-2.49c0,1.59-2,1.81-2.27,1.81a0.94,0.94,0,0,1-.68-1c0-1.3.34-1.76,1.47-1.76,0.62,0,1.47-.12,1.47,1m-2.61-3.69a2.54,2.54,0,0,1-1.64,1.47c-0.68,0-1-.17-1-0.57,0-.79,1.13-1.36,1.76-1.36s0.85,0.17.85,0.45m33.65,7c-5.38-6.71-12.37-13.81-17.52-19-3-3.09-5.45-5.54-6.74-7.08a1,1,0,0,1,1.54-1.28c1.24,1.48,3.62,3.9,6.63,7,4.9,5,11.44,11.63,16.75,18.07a21.69,21.69,0,0,1,1.6-3.62l-0.52-.71c-8.6-11.71-15-17.64-22.48-24.49a278.81,278.81,0,0,1-27-27.93c-8.11-9.57-7.82-14.84-6.59-19.43,0.74-2.75-2.52-1.28-2.52-3.23,1,0.06,4.14-.39,4.88-1.87,1.75-3.52,2.72-5.93-.78-12a7.44,7.44,0,0,1-5.32,2.35,6.75,6.75,0,0,1-6.73-4.78,7.49,7.49,0,0,1,1.67-7,10.69,10.69,0,0,0-4.17-.83c-8.75,0-5.49,7.76-3.68,14.17,1,0.4,2.81.4,3.49,2,0.08,0.28-1.53,1.13-1.87,1.36,0.62,1.25,2,3.06,3.63,5.92,2.12,3.68,4.6,7.29,2.66,7.29-2.38,0-3.63-2.44-7.14-7.37A37.24,37.24,0,0,1,85,56.39c-0.4.62-1.67,3-3.51,1.55,8.19-11-2.15-17.45-6.17-17.13a7.46,7.46,0,0,1-.5,5.58,7.64,7.64,0,0,1-7.21,4.35c-1.55,0-5.07-1.18-7.19-6.33C54,48.28,54.55,57.83,54.75,61.61c5.92-1.08,12.47,3.85,12.44,4.25a9.46,9.46,0,0,1,2.41-1.47,3,3,0,0,1,1.7.91C71.4,65.5,68.87,68,69,68.18c6.86,7.46,13.83,13.15,24.38,19.73-1.53,4.36-20.13-9.64-24.21-13.78,0,2.07-.81,2.42-1.45,2.42C65.64,65.79,56.43,63.87,52.91,65.37a18,18,0,0,0-4.9,3,8.2,8.2,0,0,1,5.88,5.3A7.85,7.85,0,0,1,52,82a7.49,7.49,0,0,1-5.17,1.86,12.68,12.68,0,0,1-3.56-.59c0.13,4.55,1.46,7.89,4,9.92,2.22,1.79,5.38,2.69,9.4,2.69,2.71,0,5.7.19,6.61-4.75,4.9-1.47,1.87,4.31,1.87,4.31A61.42,61.42,0,0,0,72,101.73c2.86,2.12,8,.81,5.57,4-1.36,0-4.09-.36-5.5.76-5.78,4.61-5.58,8.45-5.1,10.71a8.46,8.46,0,0,1,5.59-.54,7,7,0,0,1,5.39,5.45c0.29,1.7.06,4.87-4,8.27a8,8,0,0,0,3.68,1c2.47,0,4.7-1.45,7.59-4.86,1.81-2.13.81-4.43,0.81-4.94,2.49-2.27,3.88,3.81,5.07,4.88,4.08,3.66,7,9.48,6.64,13.21a6.44,6.44,0,0,1-2.75,4.92,6.75,6.75,0,0,1-3.71,1.2,6.49,6.49,0,0,1-3.22-.91c0.64,2.33,8.72,11.09,20.24,5.21,0.67-.34,1.09.68,0.92,0.95-1.28,2-9.78,3.63-12.73,7a21.24,21.24,0,0,0-4.28,10c1-1,5.47-2.9,8.25-2.9,6.57,0,10.32-5.22,15.65-5.22,2.78,0-9.15,7-12.84,8.56,4.88,4.88,18.57.65,18.91,0.65a0.63,0.63,0,0,1,.79.77c0,0.4-7,4.39-13.83,4.39,2.53,2.2,4.62,4.22,6.86,4.22,12.47,0,14.06-1.8,14.06,0s-7.88-1-10.18,5.73a30.64,30.64,0,0,0-2.1,11.06c4.15-3,7.18-3.2,12.8-4.5s10.08-3.1,11.27-3.1,1.66,0.9,1.28,1.08c-14.72,6.86-13.41,17.35-11.8,25.24,16.94-10.84,11.41-19.79,35.3-42.76-3.17-1.58-6.25-8.74-4.56-16.6M194.3,95.28a34.93,34.93,0,0,1-5.88,2.26,39.29,39.29,0,0,0,4.39,5.93l0.61,0.56a84.91,84.91,0,0,1,.88-8.74m23.45-22c0,0.79-1.93,3-5.37,3-3.82,0-3.82-2.95-3.82-4s0.63-3,2-3a2,2,0,0,1,2.1,2c0,0.62-.51,1.19-0.51,1.81s0.51,0.68,1.08.68c2,0,3.57-1.36,4-1.36s0.51,0.57.51,0.85m1.28-1.9a30.08,30.08,0,0,1-9.48-4,24.9,24.9,0,0,1-3.85,3.87A4.38,4.38,0,0,0,207,76a8.39,8.39,0,0,0,8.66,1.58c2.16-1,3.3-3.12,3.35-6.17m55.42-2.07c0,0.68-.17,1.64-1,1.64-1.7,0-.64-3.73-2-3.73-0.85,0-3.25,1.06-3.25,7,0,4.76,1.3,5.78,2.5,5.78s0.79-2.27,2.27-2.27a0.83,0.83,0,0,1,.82.79,5.45,5.45,0,0,1-5.36,5.78,4.89,4.89,0,0,1-3.79-4.52c0-2.15.78-4,.78-5.74S265,71,265,69.4c0-4.68,5.7-6.53,7.46-6.53,2.1,0,2,5.77,2,6.45M234,70a1.25,1.25,0,0,1-1.07,1.4,46.41,46.41,0,0,1-11.42.36c-0.22,5.1-3,7.23-4.77,8a9.47,9.47,0,0,1-4,.82,11.09,11.09,0,0,1-7.47-2.85A7.07,7.07,0,0,1,203,73.25a30,30,0,0,1-2.84,1.69A1.25,1.25,0,0,1,199,72.7c0.06,0,6-3,9.17-7.69l0.68-1,1,0.64c6.81,4.25,11.47,5.79,22.7,4.3A1.25,1.25,0,0,1,234,70M189.65,89.24c0,0.71-.34,1.61-1.1,1.61s-2.3-.11-2.3-0.71,0-1.9,1.19-1.9c0.68,0,2.21.28,2.21,1m-4.46-3.64c0,0.57-.24,1.8-1.4,1.8s-1.22-.31-1.22-0.68,0.17-2.2,1.22-2.2a1.39,1.39,0,0,1,1.4,1.08m-4,3.64c0.68,0,2.15.06,2.15,1s-1.45,1.87-2.61,1.87-1.16-.34-1.16-0.79,0.28-2,1.62-2m97.09-22.71L277.95,65c-0.62-2.73-1.41-6-2.85-5.9-11,.81-16.75,10.05-17.31,10.05-1.15,0-2.07-1.52-3.44-3.2-0.91-1.12-1.33-1.36-1.33-3,0-2.21,2.66,1,3.85,2.68a22.62,22.62,0,0,1,4.57-5.26c-7.3.1-55.4-.17-55.95-0.17a14.51,14.51,0,0,0-3.8.82c-5.28,1.82-6.06,3.1-7.34,5.21a23.46,23.46,0,0,1-2.27,3.25l-0.48.56-0.69.28a74.9,74.9,0,0,0-14.65,8.14l-0.32.23c-1.23.89-2.91,2.11-3.05,2.64,0,0,.08.71,1.76,2.5a5.89,5.89,0,0,0,2.68-1.28c1.19-.91,4.17-0.38,2.83.7-1,.83-3.5,2.64-4.37,4,0.15,2.82.85,4.93,2.15,6.19S181,95,183.58,95a24.33,24.33,0,0,0,10-2.73c3.84-2.05,9.67-3,14-.39,2.53,1.49,5.54,4.75,5.73,11.83,1.72,3.45,3.21,8.1,1,11.33-1.42,2.05-4.05,3.08-7.86,3.08-0.91,0-1.74,0-2.92,0-3.33,0-8-1-10.72,1.63-1.39,1.31-3.49,5.12-4.69,7.95a46.78,46.78,0,0,1-3.18,6.54c7-1.26,10.9-7.58,12.12-7.58s-1.45,3.88-1.47,5.71h0.06c0.58-.08.93-0.89,3.22-0.89,1.36,0,4.95-5.78,5.9-5.78s0.85,0.4.85,0.85c0,2.44-4.59,5.1-4.59,7.88,0,0.74,6.8-3.85,7.54-4.14,0-.85,1.36-4,2.72-4,0.45,0,.91,2.38.91,3.91s-1.19,2.15-1.19,3.23c0,1.42,4.19,7.14,4.19,6.24,0-9.69,3.63-8.33,3.63-14.17,0-4.14,1.08-3.86,1.59-3.86s1.14,0.23,1.14,2.95a16.54,16.54,0,0,1-1,5.67c8.9,0,4.88-11.4,1.76-14.23-0.63-.57,1.25-1,1.53-1,3.86,0,9.13,12.71,14.68,12.71-1.6-1.63-2.43-4.19-2.72-7-0.5-4.67.51-8.62-4-12.3-1.55-1.26-3.3-2.79-6.69-2.79a1.21,1.21,0,0,1-1.13-.95c0-.57.34-1,3.06-1s5.74,0.84,9.77,5.77c-0.27-1.38-.07-4.27-1.89-6.08A32.84,32.84,0,0,0,222.34,96s-0.23-1.08,4.48-1.08c3.17,0,5.84,3.27,9.07,3.27,2.67,0,5.1-2.2,5.1-3.16a27.42,27.42,0,0,1-6.41-1.3c-2.39-.77-4.19-3.46-6.35-4.14-4.95-1.56-9.18-2.3-9.18-3.34a1.88,1.88,0,0,1,1.7-1.19c0.85,0,1.13,1,3.4,1,1.76,0,1.59-.51,2.78-0.51,3.18,0,11.23,6.75,13,6.75,1.48,0,.91-2.66,2.5-2.66s1.59,2.38,1.59,3.06S243.94,96,242,97.27c-0.4,1.59-2.27,2.95-5,3.18,1.19,1.25,5.27,7,1.59,12,0.11,2.49-.4,12.93,6.56,15.14,1.26,1.81-9.62,7.65-16.31-3.12-0.74,3.86-2.72,9-9.24,8.79-2.95,7.2.45,6.46,0.45,9.35a2.25,2.25,0,0,1-2.21,2.21c-1,0-9.3-4.48-9.3-9.35-3.09,1.52-8.07,5.67-11.6,9.56s-6.68,6.39-9.39,7.65c-5,2.33-9.58,2.19-11.9-.32-1.58-1.71-1.92-4.1-1.2-7.06-12.26,7.07-11,23.65.21,23.65,6.38,0,17.43-7.51,17.43-6.09s-8.93,9.07-13.89,9.07c-16.72,0-27.78,32.46-37.13,40.32,15.73,0,33.17-22.18,37.7-22.18,0.43,0,.78,2.16-0.57,3.12-8.36,6-15.16,16.16-23.46,19.06,31.39,4.75,35.79-22.89,41.88-22.89,2.13,2.13-5.91,9.73-8.22,18.85-2.83,11.2.57,13.61-6,29.05,1.84,0,9.36-4.2,14-10.91,6.19-8.89,7.09-17.22,11.13-21.26,0.64-.64,1.42.8,1.42,1.7,0,0.57-6.45,19.13-9.71,22.39,6.12,0,23.11-11.61,24.49-28.81-4.8-1.33-9.29-6-13.69-13.14-8.13-13.1-10.94-11.91-9.75-13.55,1-1.45,6.8,4.22,9.75,7.77s6.25,9.46,10.4,12.94c4.88,4.08,15.68,6.33,23.16-.5-8.67,0-12-10.61-13.61-17.89-2.27-10.32-8.05-14.17-9.92-18.71-2.18-5.27-2.75-7.94-1.3-7.94,1,0,.8,2.32,3,5.57,3.59,5.2,6.31,5.82,12.09,20.79,1.93-3.23,8.45-12.36,8.45-19,0-15.53-10-22.45-8.45-24.15,1.39-1.48,13.1,9.24,12,25.06,10.94-13.95,8-25.74,4.65-27.78-3-1.82-4.8-9.3-4.08-9.64,2-1,1.67,5.26,9.47,9.81a16.27,16.27,0,0,0,16,.5c-10.84,0-12.76-13.46-15.31-19.49s-6.73-10-6.52-10.7c0.73-2.4,8,3.12,12.61,18.92,4.25-7.94,2.2-21-1.2-26.36-3-4.69-5.7-7.5-4-9.28,1-1.06,5.39,8.79,13.82,4,7.46-4.2,8.82-12.82,6.93-21m-82.52,48.2c2.13,0.06,4,.11,5.7.23a24.46,24.46,0,0,1-5.7-6.84c0,2-.05,4.15,0,6.61m91.11,13.49c1.49-6.66-.21-10.7-3.1-15.12s-13.62-9.19-11.71-10.81c3.42-2.92,10.93,8.87,16.17,4.82,3.9-3,5.13-8,5.23-12.7a10.7,10.7,0,0,1-1.89,1.07,12.26,12.26,0,0,1-5,1c-4.43,0-8.67-2.11-11.7-3.3a32.89,32.89,0,0,0-9.59-1.08c2.58,8.34,4.08,16.88-1,30.26,0,0.05,3.88,7.73,12.19,5,0.28-.09-0.28,2.41-2.49,4.64,4.54,2.41,10.57,8.12,12.53,14.5,4.22-17.81-17.12-29.89-15.78-32.19,1.77-3,13.82,9.5,16.09,14M275.6,233.73c-5-4.08-8.54-11.8-10.12-19.9-3.83-19.7-7.15-25.9-9.35-30.19-2.41-4.68-6.74-12.12-6.24-13.89,0.57-2,5.63,4.58,10.77,14.6a84.86,84.86,0,0,1,8.22,25.23c5.24-6.24,6.66-14.6,6.66-22.54,0-13-2.65-18.37-5.07-21.74-1.36-1.89-5.78-8.23-8.79-10.94-2.27-2-5.47-6-4.71-7,1-1.31,7.46,4.42,12,9,3.86,3.86,11.51,20.5,28,20.5-4.34-2.09-7-11.2-11.39-23.39-1.36-3.81-2.15-7.34-4.08-10.37-3-4.7-7.45-8.11-10.27-9.1-3.23,1.65-8.18,2.22-15.58-.74,0,0,1.44,2.81.51,8.42-0.67,4-3.69,12.42-11.73,22.39-4.22,5.23-2.67,9.64-9.75,17,3.91,11.79,12.42,10,13.52,10.22,0.44,0.1-3.54,12.23-20,9.85l-0.17,0C221.22,229,237,241.76,238.84,244c0-12.47,8.44-22.39,8.44-44.5,0-1.07,2.32-.71,2.33,0,0,5.2-.23,6.72-0.23,10.52,0,19.39,24.46,23.7,26.22,23.7m10.75,72.37c0,1.42-1.25,2.92-1.76,2.92a0.72,0.72,0,0,1-.85-0.65c0-.4-0.37-0.65-0.37-1.13,0-1,1-.94,1-1.32a1.35,1.35,0,0,1,.94-1c0.31,0,1-.2,1,1.22m-2.58-1.64c-1.3,0-1.54-.78-1.54-1.21a1.83,1.83,0,0,1,.44-0.52,2.71,2.71,0,0,1,.26-0.82,1.67,1.67,0,0,1,1-.57,0.52,0.52,0,0,1,.51.57c0,0.23.38,0.79,0.38,1.13a1.07,1.07,0,0,1-1.09,1.42m-0.22-5.84a1.58,1.58,0,0,1-1.32,1.73c-1,0-1.15-1.28-1.15-1.73a1.35,1.35,0,0,1,1.15-1.08,1.26,1.26,0,0,1,1.32,1.08m-0.83-3.32a1.7,1.7,0,0,1-1.64,1.5,1.25,1.25,0,0,1-.91-1.27,1.86,1.86,0,0,1,1.42-1,0.92,0.92,0,0,1,1.13.78m0.34,24.55c3.2,0,7.23,20.13,7.23,35.43s-0.5,18.57-1.84,18.57-0.35-13.18-1.77-28.42c-2.15-23.13-6.31-25.58-3.61-25.58m2.27,135.72c0-1,.74-3.17,1.28-3.17,1.61,0,1.27,3.17,1.27,3.57a1.45,1.45,0,0,1-1.36,1.25c-0.85,0-1.19-1-1.19-1.64m1.13-5.9c0-.28.34-1.64,1.45-1.64s2.07,2.89,2.07,3.63a1.23,1.23,0,0,1-1.19,1.19c-0.51,0-2.33-2.44-2.33-3.18m2.38-2.32a16.61,16.61,0,0,1-1.25-2.38,1.51,1.51,0,0,1,1.47-1.13c1.47,0,2.55,4.19,2.55,4.71a1.47,1.47,0,0,1-1.08,1.47c-0.36,0-1-1.39-1.7-2.66m1.93-3.51a11.25,11.25,0,0,1-1.64-1.64,2.28,2.28,0,0,1,1.42-1.76c0.68,0,3.52,2.38,3.52,4a1.79,1.79,0,0,1-1.53,1.47,16.08,16.08,0,0,1-1.76-2m1.76-3.63c-1.42,0-.57-6.48,4.31-6.48,2.44,0,3.77,1.13,3.77-3.4a4.65,4.65,0,0,0-4.72-4.15c-5.84,0-6.42-4-6.42-4.42a2.36,2.36,0,0,1,2.13-2.18c2,0-.48,3.46,4.51,3.46,5.67,0,7.54,3.4,7.54,7.54s-3.91,6.58-6.46,6.58-2.32,3.06-4.65,3.06M253.75,293.54A1.43,1.43,0,0,1,252.3,295a1,1,0,0,1-1.16-1.19,1.2,1.2,0,0,1,1.3-1.08c0.85,0,1.3.28,1.3,0.79M252,290a2.65,2.65,0,0,1-2.1,2.44c-0.91,0-1.08-1.3-1.08-1.81,0-.79,1.59-1.87,2.1-1.87S252,288.8,252,290m-3.18-3a1.82,1.82,0,0,1-1.64,1.76c-0.57,0-.68-1.13-0.68-1.76a1.62,1.62,0,0,1,1.42-1.13c0.48,0,.91,0,0.91,1.13m-2.15-2.49a1.5,1.5,0,0,1-1.53,1.36,1.21,1.21,0,0,1-1.08-1.36c0-.57.23-1,1.3-1s1.3,0.31,1.3,1m-76.18-54.94c0,1.76.38,3.35,0.38,6.41s-2.95,4.17-7,4.17-3.34-.8-5.21-0.8-0.85.71-3.29,0.71c-1.93,0-.28.89-3.85,0.89-1,0-1.64-.33-1.64-0.89s1-.71,1.93-0.71c2.32,0,1.7-2.75,7.37-2.75,3.23,0,2.95,1.47,5.39,1.47s3.29-2.27,3.29-3.74-0.51-2.61-.51-5.22,1.59-2.66,2.15-2.66,1.42-.11,1.42.62-0.38,1.59-.38,2.49M148.3,240.64a1.83,1.83,0,0,1-2.1,1.87c-2.72,0-2.49-1.48-2.49-1.87a1.93,1.93,0,0,1,1.33-1.33,0.52,0.52,0,0,1,.43.48c0,0.23.23,0.4,0.91,0.4s1.93,0,1.93.45m-5,1.76a2.13,2.13,0,0,1,1.59,1,1.33,1.33,0,0,1-1.36,1.36c-2,0-3.06-.74-3.06-1.36s0.91-2,1.59-2,0.62,1,1.25,1m-2.84,3.52a2,2,0,0,1-1.76,1.42,1.66,1.66,0,0,1-1.53-1.7,1.8,1.8,0,0,1,1.64-1.87c0.51,0,.4.28,0.4,0.79s0.11,0.62.62,0.62a0.65,0.65,0,0,1,.62.74m-4.59,1.93a1.31,1.31,0,0,1-1.42,1.3,1.11,1.11,0,0,1-1.31-1.08c0-.4.45-2.15,1.7-2.15s1,1.3,1,1.93m215.75,107a10.5,10.5,0,0,1-7.07,3,8.38,8.38,0,0,1-2.64-.43c-4.22-1.4-12.52-7.32-22-21.44-13.48-20-24.5-42.29-33-61.33-6-13.5-9.86-25.07-15.27-33.9-2.55-4.16-8.6-6.57-9.29-6.57,9.6,14.36,17.5,32.81,16.37,33.94s-8.67-15.34-16.81-28.66c-5.07-8.3-12.42-13.78-13.52-16.7-3.29,13.86-8.85,24.9-1,29.48-4.68,4.68-24.94-14.88-24.94-35.51C213.18,231,199.29,234.1,195,234c-3.54,5.1-17.72,10.77-19.42,10.77-3.4,0-2.55-4.11-1.42-4.11,5.6,0,10-24.73,9.21-31.18,0,1.56-10.91,7.37-21.26,7.37a33.1,33.1,0,0,1-10-1.31c-3.67,2-7.52,4-11.26,6-9.26,4.88-18,9.5-20.83,11.35a1,1,0,1,1-1.1-1.67c2.9-1.9,11.69-6.54,21-11.45l9.4-5a5.74,5.74,0,0,0-1.07-.11c-2.24,0-2.57,2.34-16.23,2.53l-2,1.13c-5,2.89-10.24,6.17-15.29,9.36-14.67,9.24-28.53,18-38.64,18-5.35,0-8.4-1.09-10.45-2.56a1.11,1.11,0,0,1-1.29,1c-0.72,0-.69-1.56-0.73-2.82-0.46-.52-0.87-1-1.27-1.55a8.73,8.73,0,0,0-6.06-3.89,7.09,7.09,0,0,1-1.22,5.11,6.64,6.64,0,0,1-5.36,2.76c-5.23,0-7.93-5.27-7.93-5.27a11.29,11.29,0,0,0-6.25,7.52c-0.85,4,.94,5.35,4.42,5.35,3.26,0,7.51,2.2,9.92,2.2s2.49-3,4.25-3c1.22,0,.37,2,0.85,2,0.91,0,8.42-3.47,11.27-3.47,0.71,0,.85.16,0.85,0.86,0,1.63-3.08,2.13-6.62,3.93s-6.43,3.56-10,3.56c-2.09,0-1.17-.36-2.66-0.36-0.85,0,.21,2.41-0.85,2.41-2.55,0-1.13-4.39-8.29-4.39-4.3,0-8,2.14-9.61,5.73a8.86,8.86,0,0,1,7.31,2.79c2.59,2.7,3.52,6.66,2.25,9.65C38,274.78,36,277.54,31,277.8c0.56,4.51,4.94,5.54,9,6.27,0.49,0.09.91,0.16,1.29,0.25,0.7-4.64,5-9,6.41-9.83,0-.71-1.2-0.43-1.2-1.7a2.09,2.09,0,0,1,1.6-1.88c0.81,0,1.35,1.88,2,1.88a61,61,0,0,0,9.95-6.49c5.58-4.45,10.27-10,11.86-10S73,257.11,73,257.4c0,0.65-3.67,5.09-7.58,9a44.89,44.89,0,0,1-8.65,7.27c0.64,0,3.22.67,3.22,1.35s-0.65.62-1.33,0.62-3.4-.62-3.94-0.62c-2.64,0-9.92,5.44-10.55,11.15A9.85,9.85,0,0,0,45.46,292a8.63,8.63,0,0,1,7.07-4.59,7.61,7.61,0,0,1,7.28,4.32c1.18,2.53.85,5.49-.88,8.44,0.07,0,7.22.59,10.32-1.79,4.68-3.57,11.35-12,3.69-17.89,4.54-5.89,4.09,1.77,7,1.68a26.44,26.44,0,0,0,9.46-2.26s-0.87-5.74,4-5.74a9.32,9.32,0,0,0-.23,6.73c2,2.9,4.47,4.85,6.7,5.39-0.46-3.15.38-5.89,2.42-7.65a6.14,6.14,0,0,1,7.14-.75c1.23,0.71,3.65,2.74,3.78,7.67,4-2.13,4.54-5.49,4-9.86-0.39-2.92-2.59-3.79-4.06-4.56,0.77-4.11,5.16.34,15.22-2.22a12.31,12.31,0,0,1,2.68-.32,6.27,6.27,0,0,1,6.1,3.68,7.26,7.26,0,0,1,.57,2.62c7.38-7.68,4.21-16.58,9-17.72,2.55,7.71-1.25,22.05,4.79,29.85a43.68,43.68,0,0,1,1.4-11c2.82-8.66,6.28-15.86,4-19.77,4.59,0.17,5,3.86.28,16.51a53.41,53.41,0,0,0,6.24-5.11c2.73-2.73,4.31-11.06,3.63-14.74,6.07-1.53-.06,12,1.84,15.7S172.7,275,175,276.6c-1.92-6.7.16-11,1.33-15.94,0.88-3.71,2.64-9.8,3.37-14.14,5-3.37-.09,14.48-0.34,15a53.94,53.94,0,0,0,12.38-16.35c-1.3-3.07.34-4.5,1-4.85,2.13,11.23,11,18.88,10.12,19.9-0.61.7-3.46-1.61-5.81-4.79a40.42,40.42,0,0,1-4.26-7.88c-3,5.85-7.72,13.18-7.72,13.18,5.16,4.45,33.39,22.5,50.91,38,4.66,4.13,7.45,8.09,10.2,11.52,1.56,1.94-.27,4.12-2.07,1.66-7.51-10.29-17.19-10.46-18.31-10.49,4.29,2.66,16.69,13.72,16.69,23,0,4.07-2.41,4-2.41,11.12,0,8.29,5.17,10.12,6.45,10.29,0.84-4.65,6.45-22.67,6.45-30,0.57-16.86-.85-20.2.57-20.2,2.69,0,3.4,11.13,3.4,18.35,0,15.73-11.17,44.13-13.32,56-4.68,25.8-8.93,40-20.53,42.31a11.27,11.27,0,0,1-2.21.22,14,14,0,0,1-8.1-2.89,11.44,11.44,0,0,0,2.84,6.34c3.13,3.32,8.3,3.82,11,3.82,6.55,0,9.84-4.84,10.38-5.29a0.54,0.54,0,0,1,.82.71c-2.32,3.15-3.84,3-6.36,8.71-3.79,8.67-4.33,15.47-3.76,21.51,2.56-7.08,9-17.56,11.45-21.66a0.59,0.59,0,1,1,1,.61c-2.57,4.3-12.63,21.31-11.36,26.49a38.26,38.26,0,0,0,4.12,9.44c0.41,0.63.81,1.18,1.19,1.66,0-11.3,3.94-17,8.77-24a98.53,98.53,0,0,0,7.89-13.85c2.84-5.93,3.4-16.8,4.89-19,0.66-1,2.31-1.17,2.34-.07,0.21,9-6.31,15.16,3.42,25.39,3.33,3.5,7.52,7.63,7.52,13.66,0,8.16-20.68,36.31-28.65,36.31a21.76,21.76,0,0,1-2.55-.26c-0.38-.05,2.44,2.53-0.63,2.31-0.91-.45-2.61-2.82-5.43-2.82-3.84,0-6.43.89-7.74,2.64a6.3,6.3,0,0,1,3.27,4.44c0.53,3-1.17,6.64-4,8.61a7.5,7.5,0,0,1-3.2,1.31c-0.6,2.64,0,10.72,12,1,0.75-.61.51-2.89,1.47-3.91s1.2,0.41,2,.28c1.08-.17,6.77-8.47,7.65-9.41s2.08,0,1.71,1.32c-0.95,3.33-6.42,11.1-10.44,15.18-0.37.37,3.06-.11,1.53,2.38-0.3.5-3.51-1.13-3.51-1.13C219,507.5,217.41,515,220,518.65a9.21,9.21,0,0,1,8.33-3.09,7.78,7.78,0,0,1,6.37,6c0.28,1.42.39,4.72-3.2,8,2.11,1.23,5.49,1.28,9.11.09,5.8-1.91,13.28-8.06,4.44-15.1-0.72-.57.57-1.67,1-2s2.38,2.06,2.47,1.57c0.65-3.63,3.94-7.56,5.47-14.34,1.14-5.07,1.9-12.3,2.64-12.64s1.93,1.3,1.9,3.06c0,1.09-.25,9.64-2.24,15.82a13.07,13.07,0,0,0,2.66-.14c0.72,0.07.86,0.58,0.14,0.85-11,4.15-4.8,15.6-3.11,16.91,0.24-4.65,2.91-6.68,4.22-7.4a7.75,7.75,0,0,1,8.75.93,7.55,7.55,0,0,1,2.35,6.63c6.55-2,10.35-5.7,10.94-10.93,0.52-4.58-1.41-8.15-2-8.75a6.29,6.29,0,0,0-4.81-1.08c-1,.16-1-2.7-0.28-2.75,3.91-.28,6.66-4.05,6.88-4.35s-0.22-1.9-.57-2.89,0.59-3,1.49-2.34c6.24,4.65,7.63,4.75,9.76,4.75a10,10,0,0,0,5-1c0.1-.07.2-0.11,0.3-0.17l-0.94-.6c-1.82-1.15-3.7-2.33-4.43-4.16a6.29,6.29,0,0,1,1.73-7.28c1.16-.93,4.21-2.58,9.29,0,0,0,0,0,0,0-2.27-1.3-4.1-4.28-6.76-4.28-3.09,0-2.83-1.76-2.83-1.76s0.11-1.81,1.36-1.81c8.53,0,7.4-.17,14.56-2.95,0-3.06-12.46-1.42-13.39-5.22a0.86,0.86,0,0,1,1-.91c18.88,0.17,18.57-1.13,22.07-4.14-0.78-.22-1.66,1.26-4.71.06s-4.18-4.82-12.56-4.73a0.8,0.8,0,1,1,.12-1.59c13.86-.06,17-4,18.32-6.23-2.76-.78-10.63-0.35-13.61-1.42-1-.36-0.21-1.3.71-1.27,14.6,0.43,20.36-4.29,21.52-5.88-6.14.07-10.67-.5-14.5-0.57s-3,.78-5.17.43c-1.15-.19-2.41-1.13-1.63-1.42,2.34-.85,17.15-2.41,20.13-10.06,0,0-10.77,2.76-14.39.28-0.68-.47.13-1,0.57-1.28,2.27-1.42,16.23,2,19.81-8.75a41.87,41.87,0,0,1-4.83.3c-10.54,0-15.23-4.93-20.65-10.64A65.09,65.09,0,0,0,294,396.12l-2.31-1.39,1.13-2.45c1.17-2.72,3-39.28,1.47-47.37-6-31.31-11.38-33.55-8.75-34.85s10.69,26.92,14.25,32.73c5.55,9.05,14.6,16.27,24.16,23.88,18.77,14.94,38.14,30.36,35.86,62.14,14.52-15.14,10.24-32.09,8.9-36.16s-8.87-14-7.48-15.41,6.53,13.65,26.36,13.65c11.33,0,21.63-3.7,26.93-7.89-12.61-.24-19.64-4.79-30.11-7-6.64-1.43-13.68-.32-13.68-1.06,0-1.91,15.72-5,15.72-5,10.2-2.27,16.54-12.41,19.08-20.32-6.23,4.32-13.93,7.24-19.26,9.29-13.74,5.29-16.38,10.37-17.39,9.36s3.67-4.07,6.62-13.54a54.17,54.17,0,0,0,2.59-15v-1.24H356.89a18.65,18.65,0,0,1-5.32,16.37m10.86-35.12A176.61,176.61,0,0,1,339,318.08c2.43,9.89,9.11,12.88,15.52,17h26.25c3.2-.59,12.43-10.41,15-18.08-5.95,1.69-20,2.69-33.27,2.69m-16.6-181.06c4.46-5.44,12.56-15,17-19.66-15.15-13.33-19.39-35.13-14.73-42.83a10.42,10.42,0,0,1,9.24-4.79,14.54,14.54,0,0,1,1.51.08c-1.93-4.12-4.71-6.48-8.3-7a10.85,10.85,0,0,0-1.61-.12c-5.35,0-15.83,4-13.87,21.42,0.05,0.51-.9.76-1,0.5-1.28-3.56-2.61-13-3.19-15.36s-1.38-4.86-2.21-7.5c-2.66-8.42-5.91-18.7-4.61-31.24-9,11.09-9.43,37.06-.24,48.05,0.32,0.39-.4,1.36-1,1.36s-5.61-7.88-6.58-11.34c-1.75-6.29-1.76-13.38-2.55-20.13-13.89,19.16,6,40.36,9.07,44.62,0,0,.48,1.53-0.85,1.53-1.64,0-14.63-17.63-14.63-20-6.49,19,10.23,27.55,17,31,0.36,0.18-.53,2-1.6,2-0.45,0-11.51-5.73-13.66-8.22-0.45,7.14,1,10.14,3.77,13.89,5.76,7.76,14.4,5.72,14.4,7.85,0,2.41-8.28-1.48-12.73.65-3.94,1.89-4.13,7.88-3.82,9.72a17,17,0,0,0,6.16,9.8c0.51-5.15,2.7-8.58,6.54-10.22a12.6,12.6,0,0,1,5-.93c6.9,0,15.11,4.54,17.59,6.93m90.8,74.9c1.53-7.6.67-10.86,0-13.18-1,1.67-5.82,7.57-9.17,9.75-4.12,2.69-13.27,9.44-14.29,9.52-0.25,0-.92-0.85-0.57-1.13,2.78-2.24,5.54-4.92,7.88-6.38,7.71-4.82,9.09-7.23,11.68-10.77,6.66-9.12,4.16-15.8,4-19-4.05,4.35-10.79,8.77-15.79,12.41s-7.12,5.57-9.67,9.33a1,1,0,0,1-1.56-.35,35.46,35.46,0,0,0,.76-8c0-18.24-25.12-54.75-29.89-58.58a113.33,113.33,0,0,0-13.72,12c14.78,14.64,21.94,32.07,23.83,58.07s-2.54,56.45-13.57,92.67q-0.55,2-1.24,4a1.5,1.5,0,0,1-2.85-.94q0.64-2.06,1.26-4.09c3.63-15.41,1.08-26.92-2-34.46-0.42,8-2.49,11.72-3.81,15.93a45.35,45.35,0,0,0-2.62,15.42,1,1,0,0,1-2,0,47,47,0,0,1,2.71-16c1.53-4.87,6.4-17.09-1.15-25.58-0.67,5.06-2.74,10.94-4.9,17.1-1.61,4.57-3.23,9.21-4.29,13.54l0,0,0,0c-1.59,6.5-1.91,12.33,1,16.23a1.5,1.5,0,0,1-2.39,1.81c-3.47-4.58-3.36-10.83-1.82-17.68-16.45-30.54-25.74-57.27-18-87.91,7.42-29.38,24.28-46.43,35.5-57,11.55-10.91,21.26-12.76,30.07-8.13,5.1,2.67,6.44,8.08,7.15,11.69,4.22-3.23,6.58-6.7,7-10.33,0.51-4.2-2-7.61-3.4-9s-8.53-4.77-13.78-3c-1.12-1.81,4.14-2.91,6.18-2.91,3.09,0,4.71,1.36,6.35,1.36a4,4,0,0,0,1.67-.6c9.33-6,9.67-14.23,9.67-16.41-0.62,1.13-13.66,10.54-16,10.54-1.42,0-1.7-1-1.3-1.36,5-4.08,14.4-9.69,17.52-15,4-6.82,3.12-13.2,3.12-18.13-1.35,3.12-14.53,18.78-16.51,18.78-0.92,0-.91-0.91-0.07-2.13,8.08-11.68,24.18-23.19,14-44-1.13,10-14.57,24.59-14.88,24.59-3.94,0,12.89-16.73,12.89-31.32,0-7.47-1.12-11-4.06-14.09-1.34,7-4.8,12.94-8.16,18.72-2.82,4.84-5.49,9.41-6.68,14.25s-1.36,5.56-3.2,14.29c-0.1.46-.64,1-0.89,0.75-1.72-1.72.11-6.26-1.32-10.62-1.21-3.72-4.86-7-11.27-7a12.28,12.28,0,0,0-6.17,1.59,12.8,12.8,0,0,0-5.46,6.4,11.46,11.46,0,0,1,9.5,1.69c5.11,3.6,7.38,11.42,5.65,19.46-2.49,11.55-12.15,21-22.53,30.69-6.45,6-15.32,17.42-19,22-14.67,18.64-26.51,42.27-27.05,53.63-0.19,4.06.26,7.46,0.12,7.94s-1.38,1.17-1.56.42c-1.42-5.78-15.87-11.17-22.15-17.27-2.91,8-1.68,10.9-.95,14.23,2.34,10.56,10.13,9.28,20.2,17.15,0.88,0.69-.64,1.77-1.14,1.77-0.78,0-16.87-8.08-18.07-10.35-1.35,6.1-1.35,8.41.42,13.32,3,8.22,17.5,10.7,19,15.8a1,1,0,0,1-1.54,1c-2.68-2.22-13.35-6.78-15.4-9.12-1,3.4-1.31,7.49-.43,9,7.94,13.46,21.62,13.39,23.17,21.47,0.21,1.11-.88,1.58-1.42.92-4.46-5.53-1.27-1.49-15.87-10.91-0.92,7.73-.29,10.56,1.56,14.81,4.18,9.59,16,6.75,21.68,16.73,0.28,0.5-.69,2.14-1.42,1.27-4.54-5.37-7.2-5-14.74-8.41,0.57,8.48,4.19,14.28,5.81,15.71,6.52,5.74,14.6,4.39,17.86,11.05,0.44,0.89-.64,1.35-1.42,1.35s-2.05-3.19-11-5.41c2.14,6.54,6.6,13.11,16.88,15.61,3.7,0.9,16.34,1.82,28.91,1.63,13.25-.19,26.41-1.55,29-2.89,8.9-4.71,12.93-12.7,14.85-19.11-6.12,4.59-10.52,2.93-14.32,7.19a1.12,1.12,0,0,1-1.9-.33c0-1,4.31-4.54,6.35-5.5,3.24-1.53,7.77-2.66,12.3-6.52,5-4.25,7.26-10.77,7.94-15.48,0,0-11.73,5.33-17.69,10.32a0.8,0.8,0,0,1-1.19-.68c0-3.63,9.38-5.61,20.24-15.19,4.36-3.86,6.52-17.35,6.07-20.3a96.59,96.59,0,0,1-7.88,5.84c-3.64,2.36-7.29,4-8.11,4.59-1.77,1.24-2.86,3.26-3.73,3.26a0.81,0.81,0,0,1-1-.82c0-1.93,5.52-4.68,12.63-9.92,3.23-2.38,9.19-8.69,10.43-11,3.69-6.86,4-9.24,3.69-15.93a18.61,18.61,0,0,1-5.81,7.42c-2.2,1.78-8,4.59-10.86,6.24-4.48,2.58-6.07,3.68-9,5.67-0.37.26-1.15-.24-0.79-0.68,5.84-7.43,9.89-6.43,17.21-12.42,5.64-4.62,9.94-13.54,10.57-16.67"/></g></svg>